<svg xmlns="http://www.w3.org/2000/svg" xmlns:xlink="http://www.w3.org/1999/xlink" xmlns:lucid="lucid" width="1243" height="528.31"><g transform="translate(161.9999500000033 -139)" lucid:page-tab-id="0_0"><path d="M-120 146a6 6 0 0 1 6-6h348a6 6 0 0 1 6 6v39.58a6 6 0 0 1-6 6h-348a6 6 0 0 1-6-6z" stroke="#e67e23" stroke-width="2" fill="#fef6ec"/><use xlink:href="#a" transform="matrix(1,0,0,1,-108,152) translate(0 20.6944875)"/><path d="M-120 246a6 6 0 0 1 6-6h348a6 6 0 0 1 6 6v39.58a6 6 0 0 1-6 6h-348a6 6 0 0 1-6-6z" stroke="#e67e23" stroke-width="2" fill="#fff"/><use xlink:href="#b" transform="matrix(1,0,0,1,-108,252) translate(0 21.125)"/><use xlink:href="#c" transform="matrix(1,0,0,1,-108,252) translate(117.841796875 21.125)"/><path d="M300 246a6 6 0 0 1 6-6h348a6 6 0 0 1 6 6v39.58a6 6 0 0 1-6 6H306a6 6 0 0 1-6-6z" stroke="#e67e23" stroke-width="2" fill="#fff"/><use xlink:href="#d" transform="matrix(1,0,0,1,312,252) translate(0 21.125)"/><use xlink:href="#e" transform="matrix(1,0,0,1,312,252) translate(56.5625 21.125)"/><use xlink:href="#f" transform="matrix(1,0,0,1,312,252) translate(81.5234375 21.125)"/><path d="M720 246a6 6 0 0 1 6-6h348a6 6 0 0 1 6 6v39.58a6 6 0 0 1-6 6H726a6 6 0 0 1-6-6z" stroke="#e67e23" stroke-width="2" fill="#fff"/><use xlink:href="#g" transform="matrix(1,0,0,1,732,252) translate(0 21.125)"/><path d="M60 193.58V238" stroke="#6f7681" stroke-width="2" fill="none"/><path d="M60.98 193.6h-1.95v-1.02h1.95zM60.98 239h-1.95v-1.03h1.95z" stroke="#6f7681" stroke-width=".05" fill="#6f7681"/><path d="M60 193.58v4.2a18 18 0 0 0 18 18h384a18 18 0 0 1 18 18V238" stroke="#6f7681" stroke-width="2" fill="none"/><path d="M60.98 193.6h-1.95v-1.02h1.95zM480.98 239h-1.96v-1.03h1.96z" stroke="#6f7681" stroke-width=".05" fill="#6f7681"/><path d="M60 193.58v4.2a18 18 0 0 0 18 18h804a18 18 0 0 1 18 18V238" stroke="#6f7681" stroke-width="2" fill="none"/><path d="M60.98 193.6h-1.95v-1.02h1.95zM900.98 239H899v-1.03H901z" stroke="#6f7681" stroke-width=".05" fill="#6f7681"/><path d="M-80 337.58a6 6 0 0 1 6-6h308a6 6 0 0 1 6 6v39.57a6 6 0 0 1-6 6H-74a6 6 0 0 1-6-6z" stroke="#e67e23" stroke-width="2" fill="#fef6ec"/><use xlink:href="#h" transform="matrix(1,0,0,1,-68,343.57682291666674) translate(0 20.6944875)"/><path d="M-122 265.8h-21a18 18 0 0 0-18 18v55.56a18 18 0 0 0 18 18h61" stroke="#6f7681" stroke-width="2" fill="none"/><path d="M-121 266.76h-1.03v-1.95h1.03zM-81 358.34h-1.03v-1.95H-81z" stroke="#6f7681" stroke-width=".05" fill="#6f7681"/><path d="M-80 549.15a6 6 0 0 1 6-6h308a6 6 0 0 1 6 6v39.58a6 6 0 0 1-6 6H-74a6 6 0 0 1-6-6z" stroke="#e67e23" stroke-width="2" fill="#fef6ec"/><use xlink:href="#i" transform="matrix(1,0,0,1,-68,555.1536458333335) translate(0 20.6944875)"/><path d="M-80 620.73a6 6 0 0 1 6-6h308a6 6 0 0 1 6 6v39.58a6 6 0 0 1-6 6H-74a6 6 0 0 1-6-6z" stroke="#e67e23" stroke-width="2" fill="#fef6ec"/><use xlink:href="#j" transform="matrix(1,0,0,1,-68,626.7304687500002) translate(0 20.6944875)"/><path d="M340 337.58a6 6 0 0 1 6-6h308a6 6 0 0 1 6 6v39.57a6 6 0 0 1-6 6H346a6 6 0 0 1-6-6z" stroke="#e67e23" stroke-width="2" fill="#fef6ec"/><use xlink:href="#k" transform="matrix(1,0,0,1,352,343.57682291666674) translate(0 20.6944875)"/><path d="M340 406a6 6 0 0 1 6-6h308a6 6 0 0 1 6 6v39.58a6 6 0 0 1-6 6H346a6 6 0 0 1-6-6z" stroke="#e67e23" stroke-width="2" fill="#fef6ec"/><use xlink:href="#l" transform="matrix(1,0,0,1,352,412) translate(0 20.6944875)"/><path d="M-122 265.8h-21a18 18 0 0 0-18 18v267.14a18 18 0 0 0 18 18h61" stroke="#6f7681" stroke-width="2" fill="none"/><path d="M-121 266.76h-1.03v-1.95h1.03zM-81 569.92h-1.03v-1.95H-81z" stroke="#6f7681" stroke-width=".05" fill="#6f7681"/><path d="M298 265.8h-21a18 18 0 0 0-18 18v55.56a18 18 0 0 0 18 18h61" stroke="#6f7681" stroke-width="2" fill="none"/><path d="M299 266.76h-1.03v-1.95H299zM339 358.34h-1.03v-1.95H339z" stroke="#6f7681" stroke-width=".05" fill="#6f7681"/><path d="M298 265.8h-21a18 18 0 0 0-18 18v124a18 18 0 0 0 18 18h61" stroke="#6f7681" stroke-width="2" fill="none"/><path d="M299 266.76h-1.03v-1.95H299zM339 426.76h-1.03v-1.95H339z" stroke="#6f7681" stroke-width=".05" fill="#6f7681"/><path d="M760 337.58a6 6 0 0 1 6-6h308a6 6 0 0 1 6 6v39.57a6 6 0 0 1-6 6H766a6 6 0 0 1-6-6z" stroke="#e67e23" stroke-width="2" fill="#fef6ec"/><use xlink:href="#m" transform="matrix(1,0,0,1,772,343.57682291666674) translate(0 21.125)"/><path d="M760 406a6 6 0 0 1 6-6h308a6 6 0 0 1 6 6v39.58a6 6 0 0 1-6 6H766a6 6 0 0 1-6-6z" stroke="#e67e23" stroke-width="2" fill="#fef6ec"/><use xlink:href="#n" transform="matrix(1,0,0,1,772,412) translate(0 21.125)"/><path d="M-122 265.8h-21a18 18 0 0 0-18 18V622.5a18 18 0 0 0 18 18h61" stroke="#6f7681" stroke-width="2" fill="none"/><path d="M-121 266.76h-1.03v-1.95h1.03zM-81 641.5h-1.03v-1.96H-81z" stroke="#6f7681" stroke-width=".05" fill="#6f7681"/><path d="M718 265.8h-21a18 18 0 0 0-18 18v55.56a18 18 0 0 0 18 18h61" stroke="#6f7681" stroke-width="2" fill="none"/><path d="M719 266.76h-1.03v-1.95H719zM759 358.34h-1.03v-1.95H759z" stroke="#6f7681" stroke-width=".05" fill="#6f7681"/><path d="M718 265.8h-21a18 18 0 0 0-18 18v124a18 18 0 0 0 18 18h61" stroke="#6f7681" stroke-width="2" fill="none"/><path d="M719 266.76h-1.03v-1.95H719zM759 426.76h-1.03v-1.95H759z" stroke="#6f7681" stroke-width=".05" fill="#6f7681"/><path d="M340 477.58a6 6 0 0 1 6-6h308a6 6 0 0 1 6 6v39.57a6 6 0 0 1-6 6H346a6 6 0 0 1-6-6z" stroke="#e67e23" stroke-width="2" fill="#fef6ec"/><use xlink:href="#o" transform="matrix(1,0,0,1,352,483.57682291666674) translate(0 20.6944875)"/><path d="M340 549.15a6 6 0 0 1 6-6h308a6 6 0 0 1 6 6v39.58a6 6 0 0 1-6 6H346a6 6 0 0 1-6-6z" stroke="#e67e23" stroke-width="2" fill="#fef6ec"/><use xlink:href="#p" transform="matrix(1,0,0,1,352,555.1536458333335) translate(0 20.6944875)"/><path d="M298 265.8h-21a18 18 0 0 0-18 18v195.56a18 18 0 0 0 18 18h61" stroke="#6f7681" stroke-width="2" fill="none"/><path d="M299 266.76h-1.03v-1.95H299zM339 498.34h-1.03v-1.95H339z" stroke="#6f7681" stroke-width=".05" fill="#6f7681"/><path d="M298 265.8h-21a18 18 0 0 0-18 18v267.14a18 18 0 0 0 18 18h61" stroke="#6f7681" stroke-width="2" fill="none"/><path d="M299 266.76h-1.03v-1.95H299zM339 569.92h-1.03v-1.95H339z" stroke="#6f7681" stroke-width=".05" fill="#6f7681"/><path d="M-20 406a6 6 0 0 1 6-6h248a6 6 0 0 1 6 6v39.58a6 6 0 0 1-6 6H-14a6 6 0 0 1-6-6z" stroke="#e67e23" stroke-width="2" fill="#fff"/><use xlink:href="#q" transform="matrix(1,0,0,1,-8,412) translate(0 21.125)"/><path d="M-20 477.58a6 6 0 0 1 6-6h248a6 6 0 0 1 6 6v39.57a6 6 0 0 1-6 6H-14a6 6 0 0 1-6-6z" stroke="#e67e23" stroke-width="2" fill="#fff"/><use xlink:href="#r" transform="matrix(1,0,0,1,-8,483.57682291666674) translate(0 21.125)"/><path d="M-62.63 385.15v22.64a18 18 0 0 0 18 18H-22" stroke="#6f7681" stroke-width="2" fill="none"/><path d="M-61.66 385.18h-1.95v-1.03h1.94zM-21 426.76h-1.03v-1.95H-21z" stroke="#6f7681" stroke-width=".05" fill="#6f7681"/><path d="M-62.63 385.15v94.22a18 18 0 0 0 18 18H-22" stroke="#6f7681" stroke-width="2" fill="none"/><path d="M-61.66 385.18h-1.95v-1.03h1.94zM-21 498.34h-1.03v-1.95H-21z" stroke="#6f7681" stroke-width=".05" fill="#6f7681"/><defs><path d="M786 20C389 20 94-260 94-744c0-487 299-766 692-766 339 0 597 194 641 529h-309c-28-162-156-258-326-258-233 0-388 179-388 495 0 323 157 493 387 493 170 0 298-97 328-259h309c-34 277-266 530-642 530" id="s"/><path d="M628 22C291 22 81-210 81-554c0-346 210-578 547-578 336 0 547 232 547 578 0 344-211 576-547 576zm0-236c160 0 242-146 242-341 0-197-82-341-242-341S387-753 387-555c0 195 81 341 241 341" id="t"/><path d="M128 0v-1118h278l12 217c60-163 185-234 319-234 143 0 236 81 288 251 63-172 205-251 359-251 205 0 357 138 357 381V0h-301v-697c0-126-76-187-177-187-114 0-184 79-184 196V0H789v-705c0-109-72-179-174-179-106 0-187 74-187 208V0H128" id="u"/><path d="M128 418v-1536h295v188h14c41-89 129-202 319-202 248 0 453 193 453 575 0 372-197 576-455 576-183 0-275-108-317-198h-9v597H128zm534-640c156 0 240-139 240-336 0-196-83-334-240-334-154 0-241 131-241 334 0 202 88 336 241 336" id="v"/><path d="M572 22C302 22 117-98 78-306l279-48c29 105 101 156 224 156 114 0 185-48 185-115 0-118-228-130-337-155-215-49-322-150-322-317 0-215 187-347 470-347 265 0 424 116 466 298l-266 47c-24-76-87-130-196-130-98 0-174 46-174 113 0 56 38 95 144 117l201 40c216 44 320 143 320 302 0 220-207 367-500 367" id="w"/><path d="M128 0v-1118h300V0H128zm150-1264c-91 0-165-68-165-154 0-85 74-154 165-154 90 0 165 69 165 154 0 86-75 154-165 154" id="x"/><path d="M683-1118v229H474v562c0 71 29 104 102 104 23 0 73-7 95-13l43 225C647 9 580 16 520 16 296 16 174-96 174-301v-588H20v-229h154v-266h300v266h209" id="y"/><path d="M428-647V0H128v-1118h283l4 231c63-156 176-245 348-245 232 0 384 159 384 421V0H847v-659c0-139-76-222-202-222-128 0-217 86-217 234" id="z"/><g id="a"><use transform="matrix(0.009548632812500001,0,0,0.009548632812500001,0,0)" xlink:href="#s"/><use transform="matrix(0.009548632812500001,0,0,0.009548632812500001,14.466178710937502,0)" xlink:href="#t"/><use transform="matrix(0.009548632812500001,0,0,0.009548632812500001,26.4592615234375,0)" xlink:href="#u"/><use transform="matrix(0.009548632812500001,0,0,0.009548632812500001,44.305656250000006,0)" xlink:href="#v"/><use transform="matrix(0.009548632812500001,0,0,0.009548632812500001,56.6329412109375,0)" xlink:href="#t"/><use transform="matrix(0.009548632812500001,0,0,0.009548632812500001,68.62602402343751,0)" xlink:href="#w"/><use transform="matrix(0.009548632812500001,0,0,0.009548632812500001,79.578305859375,0)" xlink:href="#x"/><use transform="matrix(0.009548632812500001,0,0,0.009548632812500001,84.87779707031251,0)" xlink:href="#y"/><use transform="matrix(0.009548632812500001,0,0,0.009548632812500001,92.0392716796875,0)" xlink:href="#x"/><use transform="matrix(0.009548632812500001,0,0,0.009548632812500001,97.33876289062502,0)" xlink:href="#t"/><use transform="matrix(0.009548632812500001,0,0,0.009548632812500001,109.33184570312503,0)" xlink:href="#z"/></g><path d="M659 0H135v-1490h529c448 0 721 280 721 744 0 466-273 746-726 746zM440-263h204c287 0 437-148 437-483 0-333-150-481-435-481H440v964" id="A"/><path d="M633 22C291 22 81-200 81-553c0-345 210-579 537-579 292 0 525 185 525 567v84H378c7 183 109 277 260 277 105 0 184-46 216-132l272 51C1071-99 893 22 633 22zM380-669h474c-15-146-94-237-233-237-143 0-229 99-241 237" id="B"/><path d="M628 22C291 22 81-210 81-554c0-346 210-578 547-578 265 0 455 142 497 372l-279 52c-25-116-99-188-215-188-160 0-244 139-244 341 0 200 84 341 244 341 116 0 193-74 217-195l279 51C1085-123 896 22 628 22" id="C"/><path d="M128 0v-1118h290v195h12c54-169 184-238 367-200v268c-27-8-86-15-130-15-138 0-239 95-239 234V0H128" id="D"/><g id="b"><use transform="matrix(0.009765625,0,0,0.009765625,0,0)" xlink:href="#A"/><use transform="matrix(0.009765625,0,0,0.009765625,14.443359375,0)" xlink:href="#B"/><use transform="matrix(0.009765625,0,0,0.009765625,26.357421875,0)" xlink:href="#w"/><use transform="matrix(0.009765625,0,0,0.009765625,37.55859375,0)" xlink:href="#C"/><use transform="matrix(0.009765625,0,0,0.009765625,49.326171875,0)" xlink:href="#D"/><use transform="matrix(0.009765625,0,0,0.009765625,57.6171875,0)" xlink:href="#x"/><use transform="matrix(0.009765625,0,0,0.009765625,63.037109375,0)" xlink:href="#v"/><use transform="matrix(0.009765625,0,0,0.009765625,75.64453125,0)" xlink:href="#y"/><use transform="matrix(0.009765625,0,0,0.009765625,82.96875,0)" xlink:href="#x"/><use transform="matrix(0.009765625,0,0,0.009765625,88.388671875,0)" xlink:href="#t"/><use transform="matrix(0.009765625,0,0,0.009765625,100.654296875,0)" xlink:href="#z"/></g><path d="M135 0v-1490h468l242 684c30 94 76 293 111 455 34-161 80-360 110-455l238-684h470V0h-307c0-447-3-765 11-1227-122 503-246 788-395 1227H826C676-435 552-717 427-1215c15 453 11 775 11 1215H135" id="E"/><path d="M428-647V0H128v-1490h294v586c65-146 175-228 341-228 232 0 385 159 385 421V0H847v-659c0-139-76-222-202-222-128 0-217 86-217 234" id="F"/><path d="M537 19C279 19 81-185 81-557c0-382 206-575 454-575 190 0 278 113 318 202h10v-560h300V0H868v-179h-15C812-89 719 19 537 19zm92-241c153 0 240-134 240-336 0-203-86-334-240-334-158 0-240 138-240 334 0 197 84 336 240 336" id="G"/><g id="c"><use transform="matrix(0.009765625,0,0,0.009765625,0,0)" xlink:href="#E"/><use transform="matrix(0.009765625,0,0,0.009765625,18.6328125,0)" xlink:href="#B"/><use transform="matrix(0.009765625,0,0,0.009765625,30.546875,0)" xlink:href="#y"/><use transform="matrix(0.009765625,0,0,0.009765625,37.919921875,0)" xlink:href="#F"/><use transform="matrix(0.009765625,0,0,0.009765625,50.37109375,0)" xlink:href="#t"/><use transform="matrix(0.009765625,0,0,0.009765625,62.63671875,0)" xlink:href="#G"/></g><path d="M135 0v-1490h305v1237h643V0H135" id="H"/><path d="M443 0L31-1118h319c90 293 199 572 268 885 66-313 175-593 264-885h315L784 0H443" id="I"/><path d="M428-1490V0H128v-1490h300" id="J"/><g id="d"><use transform="matrix(0.009765625,0,0,0.009765625,0,0)" xlink:href="#H"/><use transform="matrix(0.009765625,0,0,0.009765625,11.30859375,0)" xlink:href="#B"/><use transform="matrix(0.009765625,0,0,0.009765625,22.861328125,0)" xlink:href="#I"/><use transform="matrix(0.009765625,0,0,0.009765625,34.4921875,0)" xlink:href="#B"/><use transform="matrix(0.009765625,0,0,0.009765625,46.40625,0)" xlink:href="#J"/></g><path d="M750-1118v229H516V0H217v-889H20v-229h197v-86c0-238 156-356 363-356 94 0 178 20 215 31l-54 226c-25-7-61-15-100-15-123-3-131 84-125 200h234" id="K"/><g id="e"><use transform="matrix(0.009765625,0,0,0.009765625,0,0)" xlink:href="#t"/><use transform="matrix(0.009765625,0,0,0.009765625,12.265625,0)" xlink:href="#K"/></g><path d="M49 0l509-1490h400L1480 0h-339l-115-346H497L386 0H49zm524-585h374c-75-213-124-402-192-666-66 268-110 453-182 666" id="L"/><path d="M754 19C571 19 479-89 437-179h-14V0H128v-1490h300v560h9c41-89 129-202 319-202 248 0 453 193 453 575 0 372-197 576-455 576zm-92-241c156 0 240-139 240-336 0-196-83-334-240-334-154 0-241 131-241 334 0 202 88 336 241 336" id="M"/><path d="M440 22C227 22 68-92 68-313c0-250 202-322 422-343 195-21 271-24 271-105 0-95-63-149-175-149-116 0-187 57-211 129l-275-46c57-194 237-305 487-305 240 0 474 108 474 379V0H777v-155h-10C713-51 605 22 440 22zm85-211c140 0 238-93 238-211v-121c-37 26-156 42-222 51-111 16-185 59-185 149 0 87 70 132 169 132" id="N"/><g id="f"><use transform="matrix(0.009765625,0,0,0.009765625,0,0)" xlink:href="#L"/><use transform="matrix(0.009765625,0,0,0.009765625,14.931640625,0)" xlink:href="#M"/><use transform="matrix(0.009765625,0,0,0.009765625,27.5390625,0)" xlink:href="#w"/><use transform="matrix(0.009765625,0,0,0.009765625,38.740234375,0)" xlink:href="#y"/><use transform="matrix(0.009765625,0,0,0.009765625,46.064453125,0)" xlink:href="#D"/><use transform="matrix(0.009765625,0,0,0.009765625,53.935546875,0)" xlink:href="#N"/><use transform="matrix(0.009765625,0,0,0.009765625,65.546875,0)" xlink:href="#C"/><use transform="matrix(0.009765625,0,0,0.009765625,77.314453125,0)" xlink:href="#y"/><use transform="matrix(0.009765625,0,0,0.009765625,84.638671875,0)" xlink:href="#x"/><use transform="matrix(0.009765625,0,0,0.009765625,90.05859375,0)" xlink:href="#t"/><use transform="matrix(0.009765625,0,0,0.009765625,102.32421875,0)" xlink:href="#z"/></g><path fill="#404040" d="M135 0v-1490h468l242 684c30 94 76 293 111 455 34-161 80-360 110-455l238-684h470V0h-307c0-447-3-765 11-1227-122 503-246 788-395 1227H826C676-435 552-717 427-1215c15 453 11 775 11 1215H135" id="O"/><path fill="#404040" d="M628 22C291 22 81-210 81-554c0-346 210-578 547-578 336 0 547 232 547 578 0 344-211 576-547 576zm0-236c160 0 242-146 242-341 0-197-82-341-242-341S387-753 387-555c0 195 81 341 241 341" id="P"/><path fill="#404040" d="M537 19C279 19 81-185 81-557c0-382 206-575 454-575 190 0 278 113 318 202h10v-560h300V0H868v-179h-15C812-89 719 19 537 19zm92-241c153 0 240-134 240-336 0-203-86-334-240-334-158 0-240 138-240 334 0 197 84 336 240 336" id="Q"/><path fill="#404040" d="M513 14c-232 0-385-159-385-421v-711h300v659c0 139 76 222 202 222 127 0 217-86 217-234v-647h301V0H864l-4-232C797-74 683 14 513 14" id="R"/><path fill="#404040" d="M428-1490V0H128v-1490h300" id="S"/><path fill="#404040" d="M440 22C227 22 68-92 68-313c0-250 202-322 422-343 195-21 271-24 271-105 0-95-63-149-175-149-116 0-187 57-211 129l-275-46c57-194 237-305 487-305 240 0 474 108 474 379V0H777v-155h-10C713-51 605 22 440 22zm85-211c140 0 238-93 238-211v-121c-37 26-156 42-222 51-111 16-185 59-185 149 0 87 70 132 169 132" id="T"/><path fill="#404040" d="M128 0v-1118h290v195h12c54-169 184-238 367-200v268c-27-8-86-15-130-15-138 0-239 95-239 234V0H128" id="U"/><path fill="#404040" d="M128 0v-1118h300V0H128zm150-1264c-91 0-165-68-165-154 0-85 74-154 165-154 90 0 165 69 165 154 0 86-75 154-165 154" id="V"/><path fill="#404040" d="M683-1118v229H474v562c0 71 29 104 102 104 23 0 73-7 95-13l43 225C647 9 580 16 520 16 296 16 174-96 174-301v-588H20v-229h154v-266h300v266h209" id="W"/><path fill="#404040" d="M120 396l69-226c123 42 245 23 254-107l8-60L31-1118h319c87 288 199 559 259 872 72-308 185-583 277-872h315L726 132c-68 181-186 294-410 294-79 0-153-13-196-30" id="X"/><g id="g"><use transform="matrix(0.009765625,0,0,0.009765625,0,0)" xlink:href="#O"/><use transform="matrix(0.009765625,0,0,0.009765625,18.6328125,0)" xlink:href="#P"/><use transform="matrix(0.009765625,0,0,0.009765625,30.8984375,0)" xlink:href="#Q"/><use transform="matrix(0.009765625,0,0,0.009765625,43.505859375,0)" xlink:href="#R"/><use transform="matrix(0.009765625,0,0,0.009765625,55.95703125,0)" xlink:href="#S"/><use transform="matrix(0.009765625,0,0,0.009765625,61.376953125,0)" xlink:href="#T"/><use transform="matrix(0.009765625,0,0,0.009765625,72.98828125,0)" xlink:href="#U"/><use transform="matrix(0.009765625,0,0,0.009765625,81.279296875,0)" xlink:href="#V"/><use transform="matrix(0.009765625,0,0,0.009765625,86.69921875,0)" xlink:href="#W"/><use transform="matrix(0.009765625,0,0,0.009765625,94.462890625,0)" xlink:href="#X"/></g><path d="M657 26c-323 0-524-166-541-416h195c15 169 171 246 346 246 202 0 356-106 356-265 5-203-294-238-475-293-239-73-380-191-380-389 0-252 224-419 512-419 294 0 499 171 508 396H992c-17-145-151-228-328-228-193 0-321 102-321 242 0 156 175 211 284 241l149 41c160 44 422 134 422 412 0 244-197 432-541 432" id="Y"/><path d="M613 24c-304 0-509-231-509-576 0-350 205-580 509-580 216 0 392 114 453 309l-173 49c-33-115-133-197-280-197-223 0-326 196-326 419 0 220 103 415 326 415 150 0 252-85 285-206l172 49C1010-95 832 24 613 24" id="Z"/><path d="M338-670V0H158v-1490h180v566c73-149 190-208 336-208 226 0 379 139 379 422V0H872v-695c0-172-96-275-252-275-161 0-282 109-282 300" id="aa"/><path d="M628 24c-324 0-524-230-524-574 0-343 198-582 503-582 237 0 487 146 487 559v75H286c9 234 145 362 343 362 132 0 231-58 273-172l174 48C1024-91 857 24 628 24zM287-650h624c-17-190-120-322-304-322-192 0-309 151-320 322" id="ab"/><path d="M158 0v-1118h175l1 205c55-151 181-225 313-225 147 0 245 90 285 228 53-141 190-228 352-228 194 0 352 125 352 384V0h-181v-749c0-161-105-225-225-225-151 0-243 103-243 244V0H807v-767c0-124-93-207-219-207-131 0-250 92-250 270V0H158" id="ac"/><path d="M471 26C259 26 90-98 90-318c0-256 228-303 435-329 202-27 287-16 287-108 0-139-79-219-234-219-161 0-248 86-283 164l-173-57c86-203 278-265 451-265 150 0 419 46 419 395V0H815v-152h-12C765-73 660 26 471 26zm31-159c199 0 310-134 310-271v-155c-30 35-226 55-295 64-131 17-246 59-246 186 0 116 97 176 231 176" id="ad"/><g id="h"><use transform="matrix(0.009548632812500001,0,0,0.009548632812500001,0,0)" xlink:href="#Y"/><use transform="matrix(0.009548632812500001,0,0,0.009548632812500001,12.546903515625,0)" xlink:href="#Z"/><use transform="matrix(0.009548632812500001,0,0,0.009548632812500001,23.718803906250002,0)" xlink:href="#aa"/><use transform="matrix(0.009548632812500001,0,0,0.009548632812500001,35.282198242187505,0)" xlink:href="#ab"/><use transform="matrix(0.009548632812500001,0,0,0.009548632812500001,46.683265820312506,0)" xlink:href="#ac"/><use transform="matrix(0.009548632812500001,0,0,0.009548632812500001,63.81351308593751,0)" xlink:href="#ad"/></g><path d="M52 0l541-1490h220L1361 0h-200l-149-416H398L254 0H52zm404-582h497c-103-290-145-390-251-756-108 377-145 460-246 756" id="ae"/><path d="M180 0v-1490h510c348 0 508 209 508 474 0 266-160 477-507 477H370V0H180zm190-706h312c236 0 327-133 327-310 0-176-91-307-329-307H370v617" id="af"/><path d="M370-1490V0H180v-1490h190" id="ag"/><g id="i"><use transform="matrix(0.009548632812500001,0,0,0.009548632812500001,0,0)" xlink:href="#ae"/><use transform="matrix(0.009548632812500001,0,0,0.009548632812500001,13.492218164062502,0)" xlink:href="#af"/><use transform="matrix(0.009548632812500001,0,0,0.009548632812500001,25.981829882812505,0)" xlink:href="#ag"/></g><path d="M789 20c-398 0-667-293-667-764 0-473 273-766 655-766 315 0 558 198 612 487h-196c-61-191-204-311-415-311-262 0-471 207-471 590 0 380 208 588 482 588 249 0 420-165 425-427H828v-166h572v163c0 370-256 606-611 606" id="ah"/><path d="M763 24c-353 0-583-224-583-531v-983h190v968c0 214 149 370 393 370 243 0 391-156 391-370v-968h190v983c0 307-230 531-581 531" id="ai"/><g id="j"><use transform="matrix(0.009548632812500001,0,0,0.009548632812500001,0,0)" xlink:href="#ah"/><use transform="matrix(0.009548632812500001,0,0,0.009548632812500001,14.590310937500002,0)" xlink:href="#ai"/><use transform="matrix(0.009548632812500001,0,0,0.009548632812500001,29.142427343749997,0)" xlink:href="#ag"/></g><path d="M158 418v-1536h174v179h20c37-59 106-193 324-193 279 0 474 222 474 576 0 356-194 580-473 580-213 0-288-135-325-197h-14v591H158zm492-555c209 0 317-186 317-421 0-232-105-413-317-413-206 0-314 166-314 413 0 249 111 421 314 421" id="aj"/><path d="M338-1490V0H158v-1490h180" id="ak"/><path d="M158 0v-1118h180V0H158zm91-1301c-68 0-125-53-125-119s57-119 125-119c69 0 126 53 126 119s-57 119-126 119" id="al"/><path d="M598-1118v154H368v674c0 100 37 144 132 144 23 0 62-6 92-12L629-6c-37 13-88 20-134 20-193 0-307-107-307-290v-688H20v-154h168v-266h180v266h230" id="am"/><g id="k"><use transform="matrix(0.009548632812500001,0,0,0.009548632812500001,0,0)" xlink:href="#ag"/><use transform="matrix(0.009548632812500001,0,0,0.009548632812500001,5.251748046875001,0)" xlink:href="#ac"/><use transform="matrix(0.009548632812500001,0,0,0.009548632812500001,22.381995312500003,0)" xlink:href="#aj"/><use transform="matrix(0.009548632812500001,0,0,0.009548632812500001,34.355980859375,0)" xlink:href="#ak"/><use transform="matrix(0.009548632812500001,0,0,0.009548632812500001,39.092102734375004,0)" xlink:href="#al"/><use transform="matrix(0.009548632812500001,0,0,0.009548632812500001,43.828224609375006,0)" xlink:href="#Z"/><use transform="matrix(0.009548632812500001,0,0,0.009548632812500001,55.00012500000001,0)" xlink:href="#al"/><use transform="matrix(0.009548632812500001,0,0,0.009548632812500001,59.73624687500001,0)" xlink:href="#am"/></g><path d="M677 24c-213 0-288-135-325-197h-20V0H158v-1490h180v551h14c37-59 106-193 324-193 279 0 474 222 474 576 0 356-194 580-473 580zm-27-161c209 0 317-186 317-421 0-232-105-413-317-413-206 0-314 166-314 413 0 249 111 421 314 421" id="an"/><path d="M538 24C308 24 148-78 108-271l171-41c32 123 123 178 257 178 156 0 256-77 256-169 0-77-54-128-164-154l-186-44c-203-48-300-148-300-305 0-192 176-326 414-326 230 0 351 112 402 269l-163 42c-31-80-94-158-238-158-133 0-233 69-233 162 0 83 57 129 188 160l169 40c203 48 298 149 298 302 0 196-179 339-441 339" id="ao"/><path d="M158 0v-1118h174v172h12c41-113 157-188 290-188 26 0 70 2 91 3v181c-11-2-60-10-108-10-161 0-279 109-279 260V0H158" id="ap"/><g id="l"><use transform="matrix(0.009548632812500001,0,0,0.009548632812500001,0,0)" xlink:href="#ae"/><use transform="matrix(0.009548632812500001,0,0,0.009548632812500001,13.492218164062502,0)" xlink:href="#an"/><use transform="matrix(0.009548632812500001,0,0,0.009548632812500001,25.466203710937503,0)" xlink:href="#ao"/><use transform="matrix(0.009548632812500001,0,0,0.009548632812500001,35.78827578125001,0)" xlink:href="#am"/><use transform="matrix(0.009548632812500001,0,0,0.009548632812500001,42.18585976562501,0)" xlink:href="#ap"/><use transform="matrix(0.009548632812500001,0,0,0.009548632812500001,49.54785566406251,0)" xlink:href="#ad"/><use transform="matrix(0.009548632812500001,0,0,0.009548632812500001,60.52878339843751,0)" xlink:href="#Z"/><use transform="matrix(0.009548632812500001,0,0,0.009548632812500001,71.70068378906251,0)" xlink:href="#am"/></g><path d="M180 0v-1490h901v168H370v510h643v168H370V0H180" id="aq"/><g id="m"><use transform="matrix(0.009765625,0,0,0.009765625,0,0)" xlink:href="#aq"/><use transform="matrix(0.009765625,0,0,0.009765625,11.806640625,0)" xlink:href="#ak"/><use transform="matrix(0.009765625,0,0,0.009765625,16.650390625,0)" xlink:href="#ad"/><use transform="matrix(0.009765625,0,0,0.009765625,27.880859375,0)" xlink:href="#am"/></g><path d="M180 0v-1490h190v644h782v-644h190V0h-190v-678H370V0H180" id="ar"/><g id="n"><use transform="matrix(0.009765625,0,0,0.009765625,0,0)" xlink:href="#ar"/><use transform="matrix(0.009765625,0,0,0.009765625,14.86328125,0)" xlink:href="#al"/><use transform="matrix(0.009765625,0,0,0.009765625,19.70703125,0)" xlink:href="#ab"/><use transform="matrix(0.009765625,0,0,0.009765625,31.3671875,0)" xlink:href="#ap"/><use transform="matrix(0.009765625,0,0,0.009765625,38.896484375,0)" xlink:href="#ad"/><use transform="matrix(0.009765625,0,0,0.009765625,50.126953125,0)" xlink:href="#ap"/><use transform="matrix(0.009765625,0,0,0.009765625,57.32421875,0)" xlink:href="#Z"/><use transform="matrix(0.009765625,0,0,0.009765625,68.75,0)" xlink:href="#aa"/><use transform="matrix(0.009765625,0,0,0.009765625,80.576171875,0)" xlink:href="#al"/><use transform="matrix(0.009765625,0,0,0.009765625,85.419921875,0)" xlink:href="#Z"/><use transform="matrix(0.009765625,0,0,0.009765625,97.041015625,0)" xlink:href="#ad"/><use transform="matrix(0.009765625,0,0,0.009765625,108.271484375,0)" xlink:href="#ak"/></g><path d="M338-670V0H158v-1118h173l1 207c72-158 192-221 342-221 226 0 378 139 378 422V0H872v-695c0-172-96-275-252-275-161 0-282 109-282 300" id="as"/><path d="M577 24c-279 0-473-224-473-580 0-354 195-576 474-576 218 0 287 134 324 193h14v-551h180V0H922v-173h-20C865-111 790 24 577 24zm27-161c203 0 314-172 314-421 0-247-108-413-314-413-212 0-317 181-317 413 0 235 108 421 317 421" id="at"/><g id="o"><use transform="matrix(0.009548632812500001,0,0,0.009548632812500001,0,0)" xlink:href="#ag"/><use transform="matrix(0.009548632812500001,0,0,0.009548632812500001,5.251748046875001,0)" xlink:href="#as"/><use transform="matrix(0.009548632812500001,0,0,0.009548632812500001,16.80559375,0)" xlink:href="#am"/><use transform="matrix(0.009548632812500001,0,0,0.009548632812500001,23.012205078125,0)" xlink:href="#ab"/><use transform="matrix(0.009548632812500001,0,0,0.009548632812500001,34.41327265625,0)" xlink:href="#ap"/><use transform="matrix(0.009548632812500001,0,0,0.009548632812500001,42.0808248046875,0)" xlink:href="#ac"/><use transform="matrix(0.009548632812500001,0,0,0.009548632812500001,59.211072070312504,0)" xlink:href="#ab"/><use transform="matrix(0.009548632812500001,0,0,0.009548632812500001,70.6121396484375,0)" xlink:href="#at"/><use transform="matrix(0.009548632812500001,0,0,0.009548632812500001,82.5861251953125,0)" xlink:href="#al"/><use transform="matrix(0.009548632812500001,0,0,0.009548632812500001,87.32224707031251,0)" xlink:href="#ad"/><use transform="matrix(0.009548632812500001,0,0,0.009548632812500001,98.30317480468752,0)" xlink:href="#am"/><use transform="matrix(0.009548632812500001,0,0,0.009548632812500001,104.50978613281251,0)" xlink:href="#ab"/></g><path d="M783 20c-382 0-661-292-661-764 0-473 279-766 661-766 302 0 548 182 601 489h-190c-42-204-217-313-411-313-268 0-476 208-476 590 0 381 209 588 476 588 195 0 369-110 411-313h190c-52 303-296 489-601 489" id="au"/><path d="M613 24c-304 0-509-231-509-576 0-350 205-580 509-580 305 0 511 230 511 580 0 345-206 576-511 576zm0-161c226 0 329-195 329-415 0-222-103-419-329-419-223 0-326 196-326 419 0 220 103 415 326 415" id="av"/><g id="p"><use transform="matrix(0.009548632812500001,0,0,0.009548632812500001,0,0)" xlink:href="#au"/><use transform="matrix(0.009548632812500001,0,0,0.009548632812500001,14.284754687500001,0)" xlink:href="#av"/><use transform="matrix(0.009548632812500001,0,0,0.009548632812500001,26.01047578125,0)" xlink:href="#as"/><use transform="matrix(0.009548632812500001,0,0,0.009548632812500001,37.564321484375,0)" xlink:href="#Z"/><use transform="matrix(0.009548632812500001,0,0,0.009548632812500001,48.736221875,0)" xlink:href="#ap"/><use transform="matrix(0.009548632812500001,0,0,0.009548632812500001,55.773564257812495,0)" xlink:href="#ab"/><use transform="matrix(0.009548632812500001,0,0,0.009548632812500001,67.1746318359375,0)" xlink:href="#am"/><use transform="matrix(0.009548632812500001,0,0,0.009548632812500001,73.38124316406251,0)" xlink:href="#ab"/></g><path d="M798-719v166H144v-166h654" id="aw"/><g id="q"><use transform="matrix(0.009765625,0,0,0.009765625,0,0)" xlink:href="#ae"/><use transform="matrix(0.009765625,0,0,0.009765625,13.798828125,0)" xlink:href="#at"/><use transform="matrix(0.009765625,0,0,0.009765625,26.044921875,0)" xlink:href="#aw"/><use transform="matrix(0.009765625,0,0,0.009765625,35.244140625,0)" xlink:href="#aa"/><use transform="matrix(0.009765625,0,0,0.009765625,47.0703125,0)" xlink:href="#av"/><use transform="matrix(0.009765625,0,0,0.009765625,59.0625,0)" xlink:href="#Z"/></g><g id="r"><use transform="matrix(0.009765625,0,0,0.009765625,0,0)" xlink:href="#Y"/><use transform="matrix(0.009765625,0,0,0.009765625,12.83203125,0)" xlink:href="#am"/><use transform="matrix(0.009765625,0,0,0.009765625,19.47265625,0)" xlink:href="#ad"/><use transform="matrix(0.009765625,0,0,0.009765625,30.703125,0)" xlink:href="#as"/><use transform="matrix(0.009765625,0,0,0.009765625,42.51953125,0)" xlink:href="#at"/><use transform="matrix(0.009765625,0,0,0.009765625,54.765625,0)" xlink:href="#ad"/><use transform="matrix(0.009765625,0,0,0.009765625,65.99609375,0)" xlink:href="#ap"/><use transform="matrix(0.009765625,0,0,0.009765625,73.193359375,0)" xlink:href="#at"/></g></defs></g></svg>