<svg xmlns="http://www.w3.org/2000/svg" xmlns:xlink="http://www.w3.org/1999/xlink" xmlns:lucid="lucid" width="1202" height="153.58"><g transform="translate(121 -139)" lucid:page-tab-id="0_0"><path d="M-120 146a6 6 0 0 1 6-6h348a6 6 0 0 1 6 6v39.58a6 6 0 0 1-6 6h-348a6 6 0 0 1-6-6z" stroke="#8d44ad" stroke-width="2" fill="#fff0fb"/><use xlink:href="#a" transform="matrix(1,0,0,1,-108,152) translate(0 20.6944875)"/><use xlink:href="#b" transform="matrix(1,0,0,1,-108,152) translate(95.40039042968752 20.6944875)"/><path d="M-120 246a6 6 0 0 1 6-6h348a6 6 0 0 1 6 6v39.58a6 6 0 0 1-6 6h-348a6 6 0 0 1-6-6z" stroke="#8d44ad" stroke-width="2" fill="#fff"/><use xlink:href="#c" transform="matrix(1,0,0,1,-108,252) translate(0 21.125)"/><path d="M300 246a6 6 0 0 1 6-6h348a6 6 0 0 1 6 6v39.58a6 6 0 0 1-6 6H306a6 6 0 0 1-6-6z" stroke="#8d44ad" stroke-width="2" fill="#fff"/><use xlink:href="#d" transform="matrix(1,0,0,1,312,252) translate(0 21.125)"/><use xlink:href="#e" transform="matrix(1,0,0,1,312,252) translate(91.9140625 21.125)"/><path d="M60 193.58V238" stroke="#6f7681" stroke-width="2" fill="none"/><path d="M60.98 193.6h-1.95v-1.02h1.95zM60.98 239h-1.95v-1.03h1.95z" stroke="#6f7681" stroke-width=".05" fill="#6f7681"/><path d="M60 193.58v4.2a18 18 0 0 0 18 18h384a18 18 0 0 1 18 18V238" stroke="#6f7681" stroke-width="2" fill="none"/><path d="M60.98 193.6h-1.95v-1.02h1.95zM480.98 239h-1.96v-1.03h1.96z" stroke="#6f7681" stroke-width=".05" fill="#6f7681"/><path d="M720 246a6 6 0 0 1 6-6h348a6 6 0 0 1 6 6v39.58a6 6 0 0 1-6 6H726a6 6 0 0 1-6-6z" stroke="#8d44ad" stroke-width="2" fill="#fff"/><use xlink:href="#f" transform="matrix(1,0,0,1,732,252.00000000000003) translate(0 21.125)"/><path d="M60 193.58v4.2a18 18 0 0 0 18 18h804a18 18 0 0 1 18 18V238" stroke="#6f7681" stroke-width="2" fill="none"/><path d="M60.98 193.6h-1.95v-1.02h1.95zM900.98 239H899v-1.03H901z" stroke="#6f7681" stroke-width=".05" fill="#6f7681"/><defs><path d="M135 0v-1490h468l242 684c30 94 76 293 111 455 34-161 80-360 110-455l238-684h470V0h-307c0-447-3-765 11-1227-122 503-246 788-395 1227H826C676-435 552-717 427-1215c15 453 11 775 11 1215H135" id="g"/><path d="M633 22C291 22 81-200 81-553c0-345 210-579 537-579 292 0 525 185 525 567v84H378c7 183 109 277 260 277 105 0 184-46 216-132l272 51C1071-99 893 22 633 22zM380-669h474c-15-146-94-237-233-237-143 0-229 99-241 237" id="h"/><path d="M683-1118v229H474v562c0 71 29 104 102 104 23 0 73-7 95-13l43 225C647 9 580 16 520 16 296 16 174-96 174-301v-588H20v-229h154v-266h300v266h209" id="i"/><path d="M440 22C227 22 68-92 68-313c0-250 202-322 422-343 195-21 271-24 271-105 0-95-63-149-175-149-116 0-187 57-211 129l-275-46c57-194 237-305 487-305 240 0 474 108 474 379V0H777v-155h-10C713-51 605 22 440 22zm85-211c140 0 238-93 238-211v-121c-37 26-156 42-222 51-111 16-185 59-185 149 0 87 70 132 169 132" id="j"/><path d="M537 19C279 19 81-185 81-557c0-382 206-575 454-575 190 0 278 113 318 202h10v-560h300V0H868v-179h-15C812-89 719 19 537 19zm92-241c153 0 240-134 240-336 0-203-86-334-240-334-158 0-240 138-240 334 0 197 84 336 240 336" id="k"/><g id="a"><use transform="matrix(0.009548632812500001,0,0,0.009548632812500001,0,0)" xlink:href="#g"/><use transform="matrix(0.009548632812500001,0,0,0.009548632812500001,18.218791406250002,0)" xlink:href="#h"/><use transform="matrix(0.009548632812500001,0,0,0.009548632812500001,29.868123437500003,0)" xlink:href="#i"/><use transform="matrix(0.009548632812500001,0,0,0.009548632812500001,37.125084375,0)" xlink:href="#j"/><use transform="matrix(0.009548632812500001,0,0,0.009548632812500001,48.4784087890625,0)" xlink:href="#k"/><use transform="matrix(0.009548632812500001,0,0,0.009548632812500001,60.80569375,0)" xlink:href="#j"/><use transform="matrix(0.009548632812500001,0,0,0.009548632812500001,72.1590181640625,0)" xlink:href="#i"/><use transform="matrix(0.009548632812500001,0,0,0.009548632812500001,79.41597910156251,0)" xlink:href="#j"/></g><path d="M786 20C389 20 94-260 94-744c0-487 299-766 692-766 339 0 597 194 641 529h-309c-28-162-156-258-326-258-233 0-388 179-388 495 0 323 157 493 387 493 170 0 298-97 328-259h309c-34 277-266 530-642 530" id="l"/><path d="M128 418v-1536h295v188h14c41-89 129-202 319-202 248 0 453 193 453 575 0 372-197 576-455 576-183 0-275-108-317-198h-9v597H128zm534-640c156 0 240-139 240-336 0-196-83-334-240-334-154 0-241 131-241 334 0 202 88 336 241 336" id="m"/><path d="M513 14c-232 0-385-159-385-421v-711h300v659c0 139 76 222 202 222 127 0 217-86 217-234v-647h301V0H864l-4-232C797-74 683 14 513 14" id="n"/><path d="M128 0v-1118h290v195h12c54-169 184-238 367-200v268c-27-8-86-15-130-15-138 0-239 95-239 234V0H128" id="o"/><g id="b"><use transform="matrix(0.009548632812500001,0,0,0.009548632812500001,0,0)" xlink:href="#l"/><use transform="matrix(0.009548632812500001,0,0,0.009548632812500001,14.466178710937502,0)" xlink:href="#j"/><use transform="matrix(0.009548632812500001,0,0,0.009548632812500001,25.819503125000004,0)" xlink:href="#m"/><use transform="matrix(0.009548632812500001,0,0,0.009548632812500001,38.1467880859375,0)" xlink:href="#i"/><use transform="matrix(0.009548632812500001,0,0,0.009548632812500001,45.30826269531251,0)" xlink:href="#n"/><use transform="matrix(0.009548632812500001,0,0,0.009548632812500001,57.48276953125,0)" xlink:href="#o"/><use transform="matrix(0.009548632812500001,0,0,0.009548632812500001,64.96889765625001,0)" xlink:href="#h"/></g><path d="M135 0v-1490h581c339 0 533 210 533 503 0 295-197 500-540 500H440V0H135zm305-733h220c186 0 274-104 274-254s-88-251-275-251H440v505" id="p"/><path d="M628 22C291 22 81-210 81-554c0-346 210-578 547-578 336 0 547 232 547 578 0 344-211 576-547 576zm0-236c160 0 242-146 242-341 0-197-82-341-242-341S387-753 387-555c0 195 81 341 241 341" id="q"/><path d="M443 0L31-1118h319c90 293 199 572 268 885 66-313 175-593 264-885h315L784 0H443" id="r"/><path d="M428-647V0H128v-1118h283l4 231c63-156 176-245 348-245 232 0 384 159 384 421V0H847v-659c0-139-76-222-202-222-128 0-217 86-217 234" id="s"/><path d="M628 22C291 22 81-210 81-554c0-346 210-578 547-578 265 0 455 142 497 372l-279 52c-25-116-99-188-215-188-160 0-244 139-244 341 0 200 84 341 244 341 116 0 193-74 217-195l279 51C1085-123 896 22 628 22" id="t"/><g id="c"><use transform="matrix(0.009765625,0,0,0.009765625,0,0)" xlink:href="#p"/><use transform="matrix(0.009765625,0,0,0.009765625,12.958984375,0)" xlink:href="#o"/><use transform="matrix(0.009765625,0,0,0.009765625,20.615234375,0)" xlink:href="#q"/><use transform="matrix(0.009765625,0,0,0.009765625,32.51953125,0)" xlink:href="#r"/><use transform="matrix(0.009765625,0,0,0.009765625,44.150390625,0)" xlink:href="#h"/><use transform="matrix(0.009765625,0,0,0.009765625,56.064453125,0)" xlink:href="#s"/><use transform="matrix(0.009765625,0,0,0.009765625,68.515625,0)" xlink:href="#j"/><use transform="matrix(0.009765625,0,0,0.009765625,80.126953125,0)" xlink:href="#s"/><use transform="matrix(0.009765625,0,0,0.009765625,92.578125,0)" xlink:href="#t"/><use transform="matrix(0.009765625,0,0,0.009765625,104.345703125,0)" xlink:href="#h"/></g><path d="M49 0l509-1490h400L1480 0h-339l-115-346H497L386 0H49zm524-585h374c-75-213-124-402-192-666-66 268-110 453-182 666" id="u"/><path d="M128 0v-1118h278l12 217c60-163 185-234 319-234 143 0 236 81 288 251 63-172 205-251 359-251 205 0 357 138 357 381V0h-301v-697c0-126-76-187-177-187-114 0-184 79-184 196V0H789v-705c0-109-72-179-174-179-106 0-187 74-187 208V0H128" id="v"/><path d="M428-1490V0H128v-1490h300" id="w"/><path d="M120 396l69-226c123 42 245 23 254-107l8-60L31-1118h319c87 288 199 559 259 872 72-308 185-583 277-872h315L726 132c-68 181-186 294-410 294-79 0-153-13-196-30" id="x"/><g id="d"><use transform="matrix(0.009765625,0,0,0.009765625,0,0)" xlink:href="#u"/><use transform="matrix(0.009765625,0,0,0.009765625,14.931640625,0)" xlink:href="#s"/><use transform="matrix(0.009765625,0,0,0.009765625,27.3828125,0)" xlink:href="#q"/><use transform="matrix(0.009765625,0,0,0.009765625,39.6484375,0)" xlink:href="#v"/><use transform="matrix(0.009765625,0,0,0.009765625,57.900390625,0)" xlink:href="#j"/><use transform="matrix(0.009765625,0,0,0.009765625,69.51171875,0)" xlink:href="#w"/><use transform="matrix(0.009765625,0,0,0.009765625,75.13671875,0)" xlink:href="#x"/></g><path d="M659 0H135v-1490h529c448 0 721 280 721 744 0 466-273 746-726 746zM440-263h204c287 0 437-148 437-483 0-333-150-481-435-481H440v964" id="y"/><path d="M128 0v-1118h300V0H128zm150-1264c-91 0-165-68-165-154 0-85 74-154 165-154 90 0 165 69 165 154 0 86-75 154-165 154" id="z"/><g id="e"><use transform="matrix(0.009765625,0,0,0.009765625,0,0)" xlink:href="#y"/><use transform="matrix(0.009765625,0,0,0.009765625,14.443359375,0)" xlink:href="#h"/><use transform="matrix(0.009765625,0,0,0.009765625,26.357421875,0)" xlink:href="#i"/><use transform="matrix(0.009765625,0,0,0.009765625,33.486328125,0)" xlink:href="#h"/><use transform="matrix(0.009765625,0,0,0.009765625,45.400390625,0)" xlink:href="#t"/><use transform="matrix(0.009765625,0,0,0.009765625,57.16796875,0)" xlink:href="#i"/><use transform="matrix(0.009765625,0,0,0.009765625,64.4921875,0)" xlink:href="#z"/><use transform="matrix(0.009765625,0,0,0.009765625,69.912109375,0)" xlink:href="#q"/><use transform="matrix(0.009765625,0,0,0.009765625,82.177734375,0)" xlink:href="#s"/></g><path d="M625 442c-280 0-454-114-503-274l258-72c28 63 97 128 243 128 153 0 246-69 246-216v-206h-23C805-108 717-16 536-16 284-16 81-191 81-561c0-378 208-571 456-571 188 0 280 113 321 202h13v-188h295V-9c0 303-226 451-541 451zm5-686c153 0 240-119 240-319 0-198-86-329-240-329-158 0-241 137-241 329 0 195 85 319 241 319" id="A"/><g id="f"><use transform="matrix(0.009765625,0,0,0.009765625,0,0)" xlink:href="#g"/><use transform="matrix(0.009765625,0,0,0.009765625,18.6328125,0)" xlink:href="#q"/><use transform="matrix(0.009765625,0,0,0.009765625,30.8984375,0)" xlink:href="#s"/><use transform="matrix(0.009765625,0,0,0.009765625,43.349609375,0)" xlink:href="#z"/><use transform="matrix(0.009765625,0,0,0.009765625,48.76953125,0)" xlink:href="#i"/><use transform="matrix(0.009765625,0,0,0.009765625,55.8984375,0)" xlink:href="#q"/><use transform="matrix(0.009765625,0,0,0.009765625,68.1640625,0)" xlink:href="#o"/><use transform="matrix(0.009765625,0,0,0.009765625,76.455078125,0)" xlink:href="#z"/><use transform="matrix(0.009765625,0,0,0.009765625,81.875,0)" xlink:href="#s"/><use transform="matrix(0.009765625,0,0,0.009765625,94.326171875,0)" xlink:href="#A"/></g></defs></g></svg>