<svg xmlns="http://www.w3.org/2000/svg" xmlns:xlink="http://www.w3.org/1999/xlink" xmlns:lucid="lucid" width="823" height="385.15"><g transform="translate(161.9999500000033 -139)" lucid:page-tab-id="0_0"><path d="M-120 146a6 6 0 0 1 6-6h348a6 6 0 0 1 6 6v39.58a6 6 0 0 1-6 6h-348a6 6 0 0 1-6-6z" stroke="#26ae60" stroke-width="2" fill="#effbf2"/><use xlink:href="#a" transform="matrix(1,0,0,1,-108,152) translate(0 20.6944875)"/><path d="M-120 246a6 6 0 0 1 6-6h348a6 6 0 0 1 6 6v39.58a6 6 0 0 1-6 6h-348a6 6 0 0 1-6-6z" stroke="#26ae60" stroke-width="2" fill="#fff"/><use xlink:href="#b" transform="matrix(1,0,0,1,-108,252) translate(0 21.125)"/><path d="M300 246a6 6 0 0 1 6-6h348a6 6 0 0 1 6 6v39.58a6 6 0 0 1-6 6H306a6 6 0 0 1-6-6z" stroke="#26ae60" stroke-width="2" fill="#fff"/><use xlink:href="#c" transform="matrix(1,0,0,1,312,252) translate(0 21.125)"/><path d="M60 193.58V238" stroke="#6f7681" stroke-width="2" fill="none"/><path d="M60.98 193.6h-1.95v-1.02h1.95zM60.98 239h-1.95v-1.03h1.95z" stroke="#6f7681" stroke-width=".05" fill="#6f7681"/><path d="M60 193.58v4.2a18 18 0 0 0 18 18h384a18 18 0 0 1 18 18V238" stroke="#6f7681" stroke-width="2" fill="none"/><path d="M60.98 193.6h-1.95v-1.02h1.95zM480.98 239h-1.96v-1.03h1.96z" stroke="#6f7681" stroke-width=".05" fill="#6f7681"/><path d="M-80 337.58a6 6 0 0 1 6-6h308a6 6 0 0 1 6 6v39.57a6 6 0 0 1-6 6H-74a6 6 0 0 1-6-6z" stroke="#26ae60" stroke-width="2" fill="#effbf2"/><use xlink:href="#d" transform="matrix(1,0,0,1,-68,343.57682291666674) translate(0 20.6944875)"/><path d="M-122 265.8h-21a18 18 0 0 0-18 18v55.56a18 18 0 0 0 18 18h61" stroke="#6f7681" stroke-width="2" fill="none"/><path d="M-121 266.76h-1.03v-1.95h1.03zM-81 358.34h-1.03v-1.95H-81z" stroke="#6f7681" stroke-width=".05" fill="#6f7681"/><path d="M-80 406a6 6 0 0 1 6-6h308a6 6 0 0 1 6 6v39.58a6 6 0 0 1-6 6H-74a6 6 0 0 1-6-6z" stroke="#26ae60" stroke-width="2" fill="#effbf2"/><use xlink:href="#e" transform="matrix(1,0,0,1,-68,412) translate(0 20.6944875)"/><path d="M-80 477.58a6 6 0 0 1 6-6h308a6 6 0 0 1 6 6v39.57a6 6 0 0 1-6 6H-74a6 6 0 0 1-6-6z" stroke="#26ae60" stroke-width="2" fill="#effbf2"/><use xlink:href="#f" transform="matrix(1,0,0,1,-68,483.57682291666674) translate(0 20.6944875)"/><path d="M340 337.58a6 6 0 0 1 6-6h308a6 6 0 0 1 6 6v39.57a6 6 0 0 1-6 6H346a6 6 0 0 1-6-6z" stroke="#26ae60" stroke-width="2" fill="#effbf2"/><use xlink:href="#g" transform="matrix(1,0,0,1,352,343.57682291666674) translate(0 20.6944875)"/><path d="M340 406a6 6 0 0 1 6-6h308a6 6 0 0 1 6 6v39.58a6 6 0 0 1-6 6H346a6 6 0 0 1-6-6z" stroke="#26ae60" stroke-width="2" fill="#effbf2"/><use xlink:href="#h" transform="matrix(1,0,0,1,352,412) translate(0 20.6944875)"/><use xlink:href="#i" transform="matrix(1,0,0,1,352,412) translate(92.42121699218751 20.6944875)"/><path d="M-122 265.8h-21a18 18 0 0 0-18 18v124a18 18 0 0 0 18 18h61" stroke="#6f7681" stroke-width="2" fill="none"/><path d="M-121 266.76h-1.03v-1.95h1.03zM-81 426.76h-1.03v-1.95H-81z" stroke="#6f7681" stroke-width=".05" fill="#6f7681"/><path d="M298 265.8h-21a18 18 0 0 0-18 18v55.56a18 18 0 0 0 18 18h61" stroke="#6f7681" stroke-width="2" fill="none"/><path d="M299 266.76h-1.03v-1.95H299zM339 358.34h-1.03v-1.95H339z" stroke="#6f7681" stroke-width=".05" fill="#6f7681"/><path d="M298 265.8h-21a18 18 0 0 0-18 18v124a18 18 0 0 0 18 18h61" stroke="#6f7681" stroke-width="2" fill="none"/><path d="M299 266.76h-1.03v-1.95H299zM339 426.76h-1.03v-1.95H339z" stroke="#6f7681" stroke-width=".05" fill="#6f7681"/><path d="M-122 265.8h-21a18 18 0 0 0-18 18v195.56a18 18 0 0 0 18 18h61" stroke="#6f7681" stroke-width="2" fill="none"/><path d="M-121 266.76h-1.03v-1.95h1.03zM-81 498.34h-1.03v-1.95H-81z" stroke="#6f7681" stroke-width=".05" fill="#6f7681"/><path d="M340 477.58a6 6 0 0 1 6-6h308a6 6 0 0 1 6 6v39.57a6 6 0 0 1-6 6H346a6 6 0 0 1-6-6z" stroke="#26ae60" stroke-width="2" fill="#effbf2"/><use xlink:href="#j" transform="matrix(1,0,0,1,352,483.57682291666674) translate(0 20.6944875)"/><path d="M298 265.8h-21a18 18 0 0 0-18 18v195.56a18 18 0 0 0 18 18h61" stroke="#6f7681" stroke-width="2" fill="none"/><path d="M299 266.76h-1.03v-1.95H299zM339 498.34h-1.03v-1.95H339z" stroke="#6f7681" stroke-width=".05" fill="#6f7681"/><defs><path d="M789 20C394 20 94-260 94-744c0-487 300-766 695-766s695 279 695 766c0 485-300 764-695 764zm0-271c231 0 385-174 385-493 0-321-154-495-385-495s-385 175-385 495c0 319 154 493 385 493" id="k"/><path d="M128 0v-1118h290v195h12c54-169 184-238 367-200v268c-27-8-86-15-130-15-138 0-239 95-239 234V0H128" id="l"/><path d="M628 22C291 22 81-210 81-554c0-346 210-578 547-578 265 0 455 142 497 372l-279 52c-25-116-99-188-215-188-160 0-244 139-244 341 0 200 84 341 244 341 116 0 193-74 217-195l279 51C1085-123 896 22 628 22" id="m"/><path d="M428-647V0H128v-1490h294v586c65-146 175-228 341-228 232 0 385 159 385 421V0H847v-659c0-139-76-222-202-222-128 0-217 86-217 234" id="n"/><path d="M633 22C291 22 81-200 81-553c0-345 210-579 537-579 292 0 525 185 525 567v84H378c7 183 109 277 260 277 105 0 184-46 216-132l272 51C1071-99 893 22 633 22zM380-669h474c-15-146-94-237-233-237-143 0-229 99-241 237" id="o"/><path d="M572 22C302 22 117-98 78-306l279-48c29 105 101 156 224 156 114 0 185-48 185-115 0-118-228-130-337-155-215-49-322-150-322-317 0-215 187-347 470-347 265 0 424 116 466 298l-266 47c-24-76-87-130-196-130-98 0-174 46-174 113 0 56 38 95 144 117l201 40c216 44 320 143 320 302 0 220-207 367-500 367" id="p"/><path d="M683-1118v229H474v562c0 71 29 104 102 104 23 0 73-7 95-13l43 225C647 9 580 16 520 16 296 16 174-96 174-301v-588H20v-229h154v-266h300v266h209" id="q"/><path d="M440 22C227 22 68-92 68-313c0-250 202-322 422-343 195-21 271-24 271-105 0-95-63-149-175-149-116 0-187 57-211 129l-275-46c57-194 237-305 487-305 240 0 474 108 474 379V0H777v-155h-10C713-51 605 22 440 22zm85-211c140 0 238-93 238-211v-121c-37 26-156 42-222 51-111 16-185 59-185 149 0 87 70 132 169 132" id="r"/><path d="M128 0v-1118h300V0H128zm150-1264c-91 0-165-68-165-154 0-85 74-154 165-154 90 0 165 69 165 154 0 86-75 154-165 154" id="s"/><path d="M628 22C291 22 81-210 81-554c0-346 210-578 547-578 336 0 547 232 547 578 0 344-211 576-547 576zm0-236c160 0 242-146 242-341 0-197-82-341-242-341S387-753 387-555c0 195 81 341 241 341" id="t"/><path d="M428-647V0H128v-1118h283l4 231c63-156 176-245 348-245 232 0 384 159 384 421V0H847v-659c0-139-76-222-202-222-128 0-217 86-217 234" id="u"/><g id="a"><use transform="matrix(0.009548632812500001,0,0,0.009548632812500001,0,0)" xlink:href="#k"/><use transform="matrix(0.009548632812500001,0,0,0.009548632812500001,15.067742578125001,0)" xlink:href="#l"/><use transform="matrix(0.009548632812500001,0,0,0.009548632812500001,22.553870703125003,0)" xlink:href="#m"/><use transform="matrix(0.009548632812500001,0,0,0.009548632812500001,34.0599732421875,0)" xlink:href="#n"/><use transform="matrix(0.009548632812500001,0,0,0.009548632812500001,46.234480078125,0)" xlink:href="#o"/><use transform="matrix(0.009548632812500001,0,0,0.009548632812500001,57.88381210937499,0)" xlink:href="#p"/><use transform="matrix(0.009548632812500001,0,0,0.009548632812500001,68.8360939453125,0)" xlink:href="#q"/><use transform="matrix(0.009548632812500001,0,0,0.009548632812500001,75.9975685546875,0)" xlink:href="#l"/><use transform="matrix(0.009548632812500001,0,0,0.009548632812500001,83.6937666015625,0)" xlink:href="#r"/><use transform="matrix(0.009548632812500001,0,0,0.009548632812500001,95.04709101562501,0)" xlink:href="#q"/><use transform="matrix(0.009548632812500001,0,0,0.009548632812500001,102.20856562500003,0)" xlink:href="#s"/><use transform="matrix(0.009548632812500001,0,0,0.009548632812500001,107.50805683593752,0)" xlink:href="#t"/><use transform="matrix(0.009548632812500001,0,0,0.009548632812500001,119.50113964843753,0)" xlink:href="#u"/></g><path d="M135 0v-1490h581c339 0 533 210 533 503 0 295-197 500-540 500H440V0H135zm305-733h220c186 0 274-104 274-254s-88-251-275-251H440v505" id="v"/><path d="M428-1490V0H128v-1490h300" id="w"/><path d="M625 442c-280 0-454-114-503-274l258-72c28 63 97 128 243 128 153 0 246-69 246-216v-206h-23C805-108 717-16 536-16 284-16 81-191 81-561c0-378 208-571 456-571 188 0 280 113 321 202h13v-188h295V-9c0 303-226 451-541 451zm5-686c153 0 240-119 240-319 0-198-86-329-240-329-158 0-241 137-241 329 0 195 85 319 241 319" id="x"/><g id="b"><use transform="matrix(0.009765625,0,0,0.009765625,0,0)" xlink:href="#v"/><use transform="matrix(0.009765625,0,0,0.009765625,12.958984375,0)" xlink:href="#w"/><use transform="matrix(0.009765625,0,0,0.009765625,18.37890625,0)" xlink:href="#r"/><use transform="matrix(0.009765625,0,0,0.009765625,29.990234375,0)" xlink:href="#u"/><use transform="matrix(0.009765625,0,0,0.009765625,42.44140625,0)" xlink:href="#u"/><use transform="matrix(0.009765625,0,0,0.009765625,54.892578125,0)" xlink:href="#s"/><use transform="matrix(0.009765625,0,0,0.009765625,60.3125,0)" xlink:href="#u"/><use transform="matrix(0.009765625,0,0,0.009765625,72.763671875,0)" xlink:href="#x"/></g><path d="M135 0v-1490h997v253H440v360h640v249H440v375h694V0H135" id="y"/><path d="M42 0l360-574-338-544h324c72 124 151 261 209 394 58-134 140-271 215-394h318L785-570 1146 0H824c-79-136-169-280-234-425C528-278 439-134 360 0H42" id="z"/><path d="M513 14c-232 0-385-159-385-421v-711h300v659c0 139 76 222 202 222 127 0 217-86 217-234v-647h301V0H864l-4-232C797-74 683 14 513 14" id="A"/><g id="c"><use transform="matrix(0.009765625,0,0,0.009765625,0,0)" xlink:href="#y"/><use transform="matrix(0.009765625,0,0,0.009765625,12.1484375,0)" xlink:href="#z"/><use transform="matrix(0.009765625,0,0,0.009765625,23.349609375,0)" xlink:href="#o"/><use transform="matrix(0.009765625,0,0,0.009765625,35.263671875,0)" xlink:href="#m"/><use transform="matrix(0.009765625,0,0,0.009765625,47.03125,0)" xlink:href="#A"/><use transform="matrix(0.009765625,0,0,0.009765625,59.482421875,0)" xlink:href="#q"/><use transform="matrix(0.009765625,0,0,0.009765625,66.806640625,0)" xlink:href="#s"/><use transform="matrix(0.009765625,0,0,0.009765625,72.2265625,0)" xlink:href="#t"/><use transform="matrix(0.009765625,0,0,0.009765625,84.4921875,0)" xlink:href="#u"/></g><path d="M657 26c-323 0-524-166-541-416h195c15 169 171 246 346 246 202 0 356-106 356-265 5-203-294-238-475-293-239-73-380-191-380-389 0-252 224-419 512-419 294 0 499 171 508 396H992c-17-145-151-228-328-228-193 0-321 102-321 242 0 156 175 211 284 241l149 41c160 44 422 134 422 412 0 244-197 432-541 432" id="B"/><path d="M598-1118v154H368v674c0 100 37 144 132 144 23 0 62-6 92-12L629-6c-37 13-88 20-134 20-193 0-307-107-307-290v-688H20v-154h168v-266h180v266h230" id="C"/><path d="M471 26C259 26 90-98 90-318c0-256 228-303 435-329 202-27 287-16 287-108 0-139-79-219-234-219-161 0-248 86-283 164l-173-57c86-203 278-265 451-265 150 0 419 46 419 395V0H815v-152h-12C765-73 660 26 471 26zm31-159c199 0 310-134 310-271v-155c-30 35-226 55-295 64-131 17-246 59-246 186 0 116 97 176 231 176" id="D"/><path d="M158 0v-1118h180V0H158zm91-1301c-68 0-125-53-125-119s57-119 125-119c69 0 126 53 126 119s-57 119-126 119" id="E"/><path d="M613 24c-304 0-509-231-509-576 0-350 205-580 509-580 216 0 392 114 453 309l-173 49c-33-115-133-197-280-197-223 0-326 196-326 419 0 220 103 415 326 415 150 0 252-85 285-206l172 49C1010-95 832 24 613 24" id="F"/><g id="d"><use transform="matrix(0.009548632812500001,0,0,0.009548632812500001,0,0)" xlink:href="#B"/><use transform="matrix(0.009548632812500001,0,0,0.009548632812500001,12.546903515625,0)" xlink:href="#C"/><use transform="matrix(0.009548632812500001,0,0,0.009548632812500001,19.039973828125,0)" xlink:href="#D"/><use transform="matrix(0.009548632812500001,0,0,0.009548632812500001,30.020901562499997,0)" xlink:href="#C"/><use transform="matrix(0.009548632812500001,0,0,0.009548632812500001,36.418485546875004,0)" xlink:href="#E"/><use transform="matrix(0.009548632812500001,0,0,0.009548632812500001,41.154607421875006,0)" xlink:href="#F"/></g><path d="M645 0H180v-1490h484c435 0 692 280 692 742 0 466-257 748-711 748zM370-168h263c363 0 539-218 539-580 0-358-176-574-521-574H370v1154" id="G"/><path d="M140 405l46-156c120 36 205 19 263-150l32-93L54-1118h197c107 313 237 620 324 950 87-331 219-637 326-950h196L606 167c-68 178-176 259-334 259-64 0-113-12-132-21" id="H"/><path d="M338-670V0H158v-1118h173l1 207c72-158 192-221 342-221 226 0 378 139 378 422V0H872v-695c0-172-96-275-252-275-161 0-282 109-282 300" id="I"/><path d="M158 0v-1118h175l1 205c55-151 181-225 313-225 147 0 245 90 285 228 53-141 190-228 352-228 194 0 352 125 352 384V0h-181v-749c0-161-105-225-225-225-151 0-243 103-243 244V0H807v-767c0-124-93-207-219-207-131 0-250 92-250 270V0H158" id="J"/><g id="e"><use transform="matrix(0.009548632812500001,0,0,0.009548632812500001,0,0)" xlink:href="#G"/><use transform="matrix(0.009548632812500001,0,0,0.009548632812500001,14.112879296875,0)" xlink:href="#H"/><use transform="matrix(0.009548632812500001,0,0,0.009548632812500001,25.1033556640625,0)" xlink:href="#I"/><use transform="matrix(0.009548632812500001,0,0,0.009548632812500001,36.657201367187504,0)" xlink:href="#D"/><use transform="matrix(0.009548632812500001,0,0,0.009548632812500001,47.638129101562505,0)" xlink:href="#J"/><use transform="matrix(0.009548632812500001,0,0,0.009548632812500001,64.7683763671875,0)" xlink:href="#E"/><use transform="matrix(0.009548632812500001,0,0,0.009548632812500001,69.5044982421875,0)" xlink:href="#F"/></g><path d="M180 0v-1490h908v168H370v486h669v168H370v500h727V0H180" id="K"/><path d="M481 0L54-1118h197c107 314 236 620 325 951 87-331 217-637 324-951h197L670 0H481" id="L"/><path d="M628 24c-324 0-524-230-524-574 0-343 198-582 503-582 237 0 487 146 487 559v75H286c9 234 145 362 343 362 132 0 231-58 273-172l174 48C1024-91 857 24 628 24zM287-650h624c-17-190-120-322-304-322-192 0-309 151-320 322" id="M"/><path d="M798-719v166H144v-166h654" id="N"/><path d="M158 0v-1118h174v172h12c41-113 157-188 290-188 26 0 70 2 91 3v181c-11-2-60-10-108-10-161 0-279 109-279 260V0H158" id="O"/><g id="f"><use transform="matrix(0.009548632812500001,0,0,0.009548632812500001,0,0)" xlink:href="#K"/><use transform="matrix(0.009548632812500001,0,0,0.009548632812500001,11.754366992187501,0)" xlink:href="#L"/><use transform="matrix(0.009548632812500001,0,0,0.009548632812500001,22.362898046875003,0)" xlink:href="#M"/><use transform="matrix(0.009548632812500001,0,0,0.009548632812500001,33.763965625000004,0)" xlink:href="#I"/><use transform="matrix(0.009548632812500001,0,0,0.009548632812500001,45.317811328125,0)" xlink:href="#C"/><use transform="matrix(0.009548632812500001,0,0,0.009548632812500001,51.33345,0)" xlink:href="#N"/><use transform="matrix(0.009548632812500001,0,0,0.009548632812500001,60.328262109375004,0)" xlink:href="#G"/><use transform="matrix(0.009548632812500001,0,0,0.009548632812500001,74.44114140625001,0)" xlink:href="#O"/><use transform="matrix(0.009548632812500001,0,0,0.009548632812500001,82.1086935546875,0)" xlink:href="#E"/><use transform="matrix(0.009548632812500001,0,0,0.009548632812500001,86.84481542968751,0)" xlink:href="#L"/><use transform="matrix(0.009548632812500001,0,0,0.009548632812500001,97.453346484375,0)" xlink:href="#M"/><use transform="matrix(0.009548632812500001,0,0,0.009548632812500001,108.85441406250001,0)" xlink:href="#I"/></g><path d="M180 0v-1490h510c348 0 508 194 508 460 0 198-88 351-276 417L1256 0h-220L726-579c-117 2-238 0-356 1V0H180zm190-747h312c235 0 327-108 327-283 0-177-92-293-329-293H370v576" id="P"/><path d="M537 14c-226 0-379-139-379-422v-710h180v695c0 172 97 275 253 275 160 0 281-109 281-300v-670h181V0H879v-209C806-46 684 14 537 14" id="Q"/><g id="g"><use transform="matrix(0.009548632812500001,0,0,0.009548632812500001,0,0)" xlink:href="#P"/><use transform="matrix(0.009548632812500001,0,0,0.009548632812500001,12.585098046875002,0)" xlink:href="#Q"/><use transform="matrix(0.009548632812500001,0,0,0.009548632812500001,24.148492382812503,0)" xlink:href="#I"/><use transform="matrix(0.009548632812500001,0,0,0.009548632812500001,35.702338085937505,0)" xlink:href="#I"/><use transform="matrix(0.009548632812500001,0,0,0.009548632812500001,47.256183789062504,0)" xlink:href="#M"/><use transform="matrix(0.009548632812500001,0,0,0.009548632812500001,58.657251367187506,0)" xlink:href="#O"/></g><path d="M538 24C308 24 148-78 108-271l171-41c32 123 123 178 257 178 156 0 256-77 256-169 0-77-54-128-164-154l-186-44c-203-48-300-148-300-305 0-192 176-326 414-326 230 0 351 112 402 269l-163 42c-31-80-94-158-238-158-133 0-233 69-233 162 0 83 57 129 188 160l169 40c203 48 298 149 298 302 0 196-179 339-441 339" id="R"/><path d="M613 24c-304 0-509-231-509-576 0-350 205-580 509-580 305 0 511 230 511 580 0 345-206 576-511 576zm0-161c226 0 329-195 329-415 0-222-103-419-329-419-223 0-326 196-326 419 0 220 103 415 326 415" id="S"/><g id="h"><use transform="matrix(0.009548632812500001,0,0,0.009548632812500001,0,0)" xlink:href="#P"/><use transform="matrix(0.009548632812500001,0,0,0.009548632812500001,12.298639062500001,0)" xlink:href="#M"/><use transform="matrix(0.009548632812500001,0,0,0.009548632812500001,23.699706640625003,0)" xlink:href="#R"/><use transform="matrix(0.009548632812500001,0,0,0.009548632812500001,34.021778710937504,0)" xlink:href="#S"/><use transform="matrix(0.009548632812500001,0,0,0.009548632812500001,45.74749980468751,0)" xlink:href="#Q"/><use transform="matrix(0.009548632812500001,0,0,0.009548632812500001,57.310894140625,0)" xlink:href="#O"/><use transform="matrix(0.009548632812500001,0,0,0.009548632812500001,64.3482365234375,0)" xlink:href="#F"/><use transform="matrix(0.009548632812500001,0,0,0.009548632812500001,75.5201369140625,0)" xlink:href="#M"/></g><path d="M180 0v-1490h270l367 940c28 72 75 218 110 339 35-117 81-264 110-339l362-940h271V0h-187c2-448-5-837 7-1287-157 497-311 829-483 1287H842C666-458 514-784 354-1284c12 438 5 843 7 1284H180" id="T"/><path d="M611 442c-248 0-391-105-460-228l146-94c47 65 117 165 314 165 178 0 307-82 307-266v-224h-17C863-141 792-18 576-18c-268 0-472-195-472-546 0-346 197-568 476-568 216 0 288 133 326 193h17v-179h175V29c0 289-215 413-487 413zm-5-620c203 0 314-146 314-390 0-237-108-403-314-403-213 0-319 180-319 403 0 230 109 390 319 390" id="U"/><g id="i"><use transform="matrix(0.009548632812500001,0,0,0.009548632812500001,0,0)" xlink:href="#T"/><use transform="matrix(0.009548632812500001,0,0,0.009548632812500001,17.664970703125,0)" xlink:href="#D"/><use transform="matrix(0.009548632812500001,0,0,0.009548632812500001,28.6458984375,0)" xlink:href="#I"/><use transform="matrix(0.009548632812500001,0,0,0.009548632812500001,40.199744140625,0)" xlink:href="#D"/><use transform="matrix(0.009548632812500001,0,0,0.009548632812500001,51.180671875,0)" xlink:href="#U"/><use transform="matrix(0.009548632812500001,0,0,0.009548632812500001,63.1737546875,0)" xlink:href="#M"/><use transform="matrix(0.009548632812500001,0,0,0.009548632812500001,74.574822265625,0)" xlink:href="#O"/></g><path d="M338-1490V0H158v-1490h180" id="V"/><g id="j"><use transform="matrix(0.009548632812500001,0,0,0.009548632812500001,0,0)" xlink:href="#B"/><use transform="matrix(0.009548632812500001,0,0,0.009548632812500001,12.546903515625,0)" xlink:href="#M"/><use transform="matrix(0.009548632812500001,0,0,0.009548632812500001,23.947971093750002,0)" xlink:href="#O"/><use transform="matrix(0.009548632812500001,0,0,0.009548632812500001,31.6155232421875,0)" xlink:href="#L"/><use transform="matrix(0.009548632812500001,0,0,0.009548632812500001,42.224054296874996,0)" xlink:href="#M"/><use transform="matrix(0.009548632812500001,0,0,0.009548632812500001,53.625121875,0)" xlink:href="#O"/><use transform="matrix(0.009548632812500001,0,0,0.009548632812500001,61.2926740234375,0)" xlink:href="#V"/><use transform="matrix(0.009548632812500001,0,0,0.009548632812500001,66.0287958984375,0)" xlink:href="#M"/><use transform="matrix(0.009548632812500001,0,0,0.009548632812500001,77.4298634765625,0)" xlink:href="#R"/><use transform="matrix(0.009548632812500001,0,0,0.009548632812500001,87.751935546875,0)" xlink:href="#R"/></g></defs></g></svg>