<svg xmlns="http://www.w3.org/2000/svg" xmlns:xlink="http://www.w3.org/1999/xlink" xmlns:lucid="lucid" width="2083" height="385.15"><g transform="translate(161.9999500000033 -139)" lucid:page-tab-id="0_0"><path d="M-120 146a6 6 0 0 1 6-6h348a6 6 0 0 1 6 6v39.58a6 6 0 0 1-6 6h-348a6 6 0 0 1-6-6z" stroke="#e45f4c" stroke-width="2" fill="#ffd9d9"/><use xlink:href="#a" transform="matrix(1,0,0,1,-108,152) translate(0 20.6944875)"/><use xlink:href="#b" transform="matrix(1,0,0,1,-108,152) translate(93.251948046875 20.6944875)"/><path d="M-120 246a6 6 0 0 1 6-6h348a6 6 0 0 1 6 6v39.58a6 6 0 0 1-6 6h-348a6 6 0 0 1-6-6z" stroke="#e45f4c" stroke-width="2" fill="#fff"/><use xlink:href="#c" transform="matrix(1,0,0,1,-108,252) translate(0 21.125)"/><path d="M300 246a6 6 0 0 1 6-6h348a6 6 0 0 1 6 6v39.58a6 6 0 0 1-6 6H306a6 6 0 0 1-6-6z" stroke="#e45f4c" stroke-width="2" fill="#fff"/><use xlink:href="#d" transform="matrix(1,0,0,1,312,252) translate(0 21.125)"/><path d="M720 246a6 6 0 0 1 6-6h348a6 6 0 0 1 6 6v39.58a6 6 0 0 1-6 6H726a6 6 0 0 1-6-6z" stroke="#e45f4c" stroke-width="2" fill="#fff"/><use xlink:href="#e" transform="matrix(1,0,0,1,732,252) translate(0 21.125)"/><path d="M1140 246a6 6 0 0 1 6-6h348a6 6 0 0 1 6 6v39.58a6 6 0 0 1-6 6h-348a6 6 0 0 1-6-6z" stroke="#e45f4c" stroke-width="2" fill="#fff"/><use xlink:href="#f" transform="matrix(1,0,0,1,1152,252) translate(0 21.125)"/><path d="M1560 246a6 6 0 0 1 6-6h348a6 6 0 0 1 6 6v39.58a6 6 0 0 1-6 6h-348a6 6 0 0 1-6-6z" stroke="#e45f4c" stroke-width="2" fill="#fff"/><use xlink:href="#g" transform="matrix(1,0,0,1,1572,252) translate(0 21.125)"/><path d="M60 193.58V238" stroke="#6f7681" stroke-width="2" fill="none"/><path d="M60.98 193.6h-1.95v-1.02h1.95zM60.98 239h-1.95v-1.03h1.95z" stroke="#6f7681" stroke-width=".05" fill="#6f7681"/><path d="M60 193.58v4.2a18 18 0 0 0 18 18h384a18 18 0 0 1 18 18V238" stroke="#6f7681" stroke-width="2" fill="none"/><path d="M60.98 193.6h-1.95v-1.02h1.95zM480.98 239h-1.96v-1.03h1.96z" stroke="#6f7681" stroke-width=".05" fill="#6f7681"/><path d="M60 193.58v4.2a18 18 0 0 0 18 18h804a18 18 0 0 1 18 18V238" stroke="#6f7681" stroke-width="2" fill="none"/><path d="M60.98 193.6h-1.95v-1.02h1.95zM900.98 239H899v-1.03H901z" stroke="#6f7681" stroke-width=".05" fill="#6f7681"/><path d="M-80 337.58a6 6 0 0 1 6-6h308a6 6 0 0 1 6 6v39.57a6 6 0 0 1-6 6H-74a6 6 0 0 1-6-6z" stroke="#e45f4c" stroke-width="2" fill="#ffd9d9"/><use xlink:href="#h" transform="matrix(1,0,0,1,-68,343.57682291666674) translate(0 20.6944875)"/><path d="M-122 265.8h-21a18 18 0 0 0-18 18v55.56a18 18 0 0 0 18 18h61" stroke="#6f7681" stroke-width="2" fill="none"/><path d="M-121 266.76h-1.03v-1.95h1.03zM-81 358.34h-1.03v-1.95H-81z" stroke="#6f7681" stroke-width=".05" fill="#6f7681"/><path d="M-80 406a6 6 0 0 1 6-6h308a6 6 0 0 1 6 6v39.58a6 6 0 0 1-6 6H-74a6 6 0 0 1-6-6z" stroke="#e45f4c" stroke-width="2" fill="#ffd9d9"/><use xlink:href="#i" transform="matrix(1,0,0,1,-68,412) translate(0 20.6944875)"/><path d="M-80 477.58a6 6 0 0 1 6-6h308a6 6 0 0 1 6 6v39.57a6 6 0 0 1-6 6H-74a6 6 0 0 1-6-6z" stroke="#e45f4c" stroke-width="2" fill="#ffd9d9"/><use xlink:href="#j" transform="matrix(1,0,0,1,-68,483.57682291666674) translate(0 20.6944875)"/><path d="M340 337.58a6 6 0 0 1 6-6h308a6 6 0 0 1 6 6v39.57a6 6 0 0 1-6 6H346a6 6 0 0 1-6-6z" stroke="#e45f4c" stroke-width="2" fill="#ffd9d9"/><use xlink:href="#k" transform="matrix(1,0,0,1,352,343.57682291666674) translate(0 20.6944875)"/><path d="M340 406a6 6 0 0 1 6-6h308a6 6 0 0 1 6 6v39.58a6 6 0 0 1-6 6H346a6 6 0 0 1-6-6z" stroke="#e45f4c" stroke-width="2" fill="#ffd9d9"/><use xlink:href="#l" transform="matrix(1,0,0,1,352,412) translate(0 20.6944875)"/><path d="M-122 265.8h-21a18 18 0 0 0-18 18v124a18 18 0 0 0 18 18h61" stroke="#6f7681" stroke-width="2" fill="none"/><path d="M-121 266.76h-1.03v-1.95h1.03zM-81 426.76h-1.03v-1.95H-81z" stroke="#6f7681" stroke-width=".05" fill="#6f7681"/><path d="M298 265.8h-21a18 18 0 0 0-18 18v55.56a18 18 0 0 0 18 18h61" stroke="#6f7681" stroke-width="2" fill="none"/><path d="M299 266.76h-1.03v-1.95H299zM339 358.34h-1.03v-1.95H339z" stroke="#6f7681" stroke-width=".05" fill="#6f7681"/><path d="M298 265.8h-21a18 18 0 0 0-18 18v124a18 18 0 0 0 18 18h61" stroke="#6f7681" stroke-width="2" fill="none"/><path d="M299 266.76h-1.03v-1.95H299zM339 426.76h-1.03v-1.95H339z" stroke="#6f7681" stroke-width=".05" fill="#6f7681"/><path d="M760 337.58a6 6 0 0 1 6-6h308a6 6 0 0 1 6 6v39.57a6 6 0 0 1-6 6H766a6 6 0 0 1-6-6z" stroke="#e45f4c" stroke-width="2" fill="#ffd9d9"/><use xlink:href="#m" transform="matrix(1,0,0,1,772,343.57682291666674) translate(0 21.125)"/><path d="M760 406a6 6 0 0 1 6-6h308a6 6 0 0 1 6 6v39.58a6 6 0 0 1-6 6H766a6 6 0 0 1-6-6z" stroke="#e45f4c" stroke-width="2" fill="#ffd9d9"/><use xlink:href="#n" transform="matrix(1,0,0,1,772,412) translate(0 21.125)"/><use xlink:href="#o" transform="matrix(1,0,0,1,772,412) translate(111.93359375 21.125)"/><path d="M760 477.58a6 6 0 0 1 6-6h308a6 6 0 0 1 6 6v39.57a6 6 0 0 1-6 6H766a6 6 0 0 1-6-6z" stroke="#e45f4c" stroke-width="2" fill="#ffd9d9"/><use xlink:href="#p" transform="matrix(1,0,0,1,772,483.57682291666674) translate(0 21.125)"/><path d="M-122 265.8h-21a18 18 0 0 0-18 18v195.56a18 18 0 0 0 18 18h61" stroke="#6f7681" stroke-width="2" fill="none"/><path d="M-121 266.76h-1.03v-1.95h1.03zM-81 498.34h-1.03v-1.95H-81z" stroke="#6f7681" stroke-width=".05" fill="#6f7681"/><path d="M718 265.8h-21a18 18 0 0 0-18 18v55.56a18 18 0 0 0 18 18h61" stroke="#6f7681" stroke-width="2" fill="none"/><path d="M719 266.76h-1.03v-1.95H719zM759 358.34h-1.03v-1.95H759z" stroke="#6f7681" stroke-width=".05" fill="#6f7681"/><path d="M718 265.8h-21a18 18 0 0 0-18 18v124a18 18 0 0 0 18 18h61" stroke="#6f7681" stroke-width="2" fill="none"/><path d="M719 266.76h-1.03v-1.95H719zM759 426.76h-1.03v-1.95H759z" stroke="#6f7681" stroke-width=".05" fill="#6f7681"/><path d="M718 265.8h-21a18 18 0 0 0-18 18v195.56a18 18 0 0 0 18 18h61" stroke="#6f7681" stroke-width="2" fill="none"/><path d="M719 266.76h-1.03v-1.95H719zM759 498.34h-1.03v-1.95H759z" stroke="#6f7681" stroke-width=".05" fill="#6f7681"/><path d="M60 193.58v4.2a18 18 0 0 0 18 18h1224a18 18 0 0 1 18 18V238" stroke="#6f7681" stroke-width="2" fill="none"/><path d="M60.98 193.6h-1.95v-1.02h1.95zM1320.97 239h-1.94v-1.03h1.94z" stroke="#6f7681" stroke-width=".05" fill="#6f7681"/><path d="M1138 265.8h-21a18 18 0 0 0-18 18v55.56a18 18 0 0 0 18 18h61" stroke="#6f7681" stroke-width="2" fill="none"/><path d="M1139 266.76h-1.03v-1.95h1.03zM1179 358.34h-1.03v-1.95h1.03z" stroke="#6f7681" stroke-width=".05" fill="#6f7681"/><path d="M1138 265.8h-21a18 18 0 0 0-18 18v124a18 18 0 0 0 18 18h61" stroke="#6f7681" stroke-width="2" fill="none"/><path d="M1139 266.76h-1.03v-1.95h1.03zM1179 426.76h-1.03v-1.95h1.03z" stroke="#6f7681" stroke-width=".05" fill="#6f7681"/><path d="M1600 406a6 6 0 0 1 6-6h308a6 6 0 0 1 6 6v39.58a6 6 0 0 1-6 6h-308a6 6 0 0 1-6-6z" stroke="#e45f4c" stroke-width="2" fill="#ffd9d9"/><use xlink:href="#q" transform="matrix(1,0,0,1,1612,412) translate(0 21.125)"/><path d="M60 193.58v4.2a18 18 0 0 0 18 18h1644a18 18 0 0 1 18 18V238" stroke="#6f7681" stroke-width="2" fill="none"/><path d="M60.98 193.6h-1.95v-1.02h1.95zM1740.97 239h-1.94v-1.03h1.94z" stroke="#6f7681" stroke-width=".05" fill="#6f7681"/><path d="M1558 265.8h-21a18 18 0 0 0-18 18v55.56a18 18 0 0 0 18 18h61" stroke="#6f7681" stroke-width="2" fill="none"/><path d="M1559 266.76h-1.03v-1.95h1.03zM1599 358.34h-1.03v-1.95h1.03z" stroke="#6f7681" stroke-width=".05" fill="#6f7681"/><path d="M1558 265.8h-21a18 18 0 0 0-18 18v124a18 18 0 0 0 18 18h61" stroke="#6f7681" stroke-width="2" fill="none"/><path d="M1559 266.76h-1.03v-1.95h1.03zM1599 426.76h-1.03v-1.95h1.03z" stroke="#6f7681" stroke-width=".05" fill="#6f7681"/><path d="M1600 337.58a6 6 0 0 1 6-6h308a6 6 0 0 1 6 6v39.57a6 6 0 0 1-6 6h-308a6 6 0 0 1-6-6z" stroke="#e45f4c" stroke-width="2" fill="#ffd9d9"/><use xlink:href="#r" transform="matrix(1,0,0,1,1612,343.57682291666674) translate(0 21.125)"/><path d="M1180 406a6 6 0 0 1 6-6h308a6 6 0 0 1 6 6v39.58a6 6 0 0 1-6 6h-308a6 6 0 0 1-6-6z" stroke="#e45f4c" stroke-width="2" fill="#ffd9d9"/><use xlink:href="#s" transform="matrix(1,0,0,1,1192,412) translate(0 21.125)"/><use xlink:href="#t" transform="matrix(1,0,0,1,1192,412) translate(82.705078125 21.125)"/><path d="M1180 337.58a6 6 0 0 1 6-6h308a6 6 0 0 1 6 6v39.57a6 6 0 0 1-6 6h-308a6 6 0 0 1-6-6z" stroke="#e45f4c" stroke-width="2" fill="#ffd9d9"/><g><use xlink:href="#u" transform="matrix(1,0,0,1,1192,343.57682291666674) translate(0 21.125)"/></g><defs><path d="M458 0L52-1490h194c108 439 233 855 324 1313 92-459 221-873 331-1313h216c110 438 234 854 330 1307 92-455 216-869 323-1307h196L1558 0h-221l-256-944c-26-95-50-200-73-331-22 122-44 223-73 331L680 0H458" id="v"/><path d="M613 24c-304 0-509-231-509-576 0-350 205-580 509-580 305 0 511 230 511 580 0 345-206 576-511 576zm0-161c226 0 329-195 329-415 0-222-103-419-329-419-223 0-326 196-326 419 0 220 103 415 326 415" id="w"/><path d="M158 0v-1118h174v172h12c41-113 157-188 290-188 26 0 70 2 91 3v181c-11-2-60-10-108-10-161 0-279 109-279 260V0H158" id="x"/><path d="M158 0v-1490h180v865h22l478-493h223L593-638 1096 0H865L456-523 338-412V0H158" id="y"/><path d="M678-1118v154H420V0H240v-964H20v-154h220v-149c0-194 155-293 318-293 85 0 141 18 168 30l-50 154c-19-6-47-17-97-17-111 0-159 58-159 166v109h258" id="z"/><path d="M338-1490V0H158v-1490h180" id="A"/><path d="M409 0L70-1118h191c89 329 165 560 243 925 75-353 154-601 240-925h192c85 325 161 564 235 922 77-354 157-598 244-922h191L1267 0h-179c-86-307-176-590-250-913C763-588 675-308 588 0H409" id="B"/><g id="a"><use transform="matrix(0.009548632812500001,0,0,0.009548632812500001,0,0)" xlink:href="#v"/><use transform="matrix(0.009548632812500001,0,0,0.009548632812500001,18.276083203125,0)" xlink:href="#w"/><use transform="matrix(0.009548632812500001,0,0,0.009548632812500001,30.001804296875004,0)" xlink:href="#x"/><use transform="matrix(0.009548632812500001,0,0,0.009548632812500001,37.6693564453125,0)" xlink:href="#y"/><use transform="matrix(0.009548632812500001,0,0,0.009548632812500001,48.40201972656249,0)" xlink:href="#z"/><use transform="matrix(0.009548632812500001,0,0,0.009548632812500001,55.639883398437505,0)" xlink:href="#A"/><use transform="matrix(0.009548632812500001,0,0,0.009548632812500001,60.37600527343751,0)" xlink:href="#w"/><use transform="matrix(0.009548632812500001,0,0,0.009548632812500001,71.748426953125,0)" xlink:href="#B"/></g><path d="M783 20c-382 0-661-292-661-764 0-473 279-766 661-766 302 0 548 182 601 489h-190c-42-204-217-313-411-313-268 0-476 208-476 590 0 381 209 588 476 588 195 0 369-110 411-313h190c-52 303-296 489-601 489" id="C"/><path d="M338-670V0H158v-1490h180v566c73-149 190-208 336-208 226 0 379 139 379 422V0H872v-695c0-172-96-275-252-275-161 0-282 109-282 300" id="D"/><path d="M471 26C259 26 90-98 90-318c0-256 228-303 435-329 202-27 287-16 287-108 0-139-79-219-234-219-161 0-248 86-283 164l-173-57c86-203 278-265 451-265 150 0 419 46 419 395V0H815v-152h-12C765-73 660 26 471 26zm31-159c199 0 310-134 310-271v-155c-30 35-226 55-295 64-131 17-246 59-246 186 0 116 97 176 231 176" id="E"/><path d="M613 24c-304 0-509-231-509-576 0-350 205-580 509-580 216 0 392 114 453 309l-173 49c-33-115-133-197-280-197-223 0-326 196-326 419 0 220 103 415 326 415 150 0 252-85 285-206l172 49C1010-95 832 24 613 24" id="F"/><path d="M598-1118v154H368v674c0 100 37 144 132 144 23 0 62-6 92-12L629-6c-37 13-88 20-134 20-193 0-307-107-307-290v-688H20v-154h168v-266h180v266h230" id="G"/><path d="M628 24c-324 0-524-230-524-574 0-343 198-582 503-582 237 0 487 146 487 559v75H286c9 234 145 362 343 362 132 0 231-58 273-172l174 48C1024-91 857 24 628 24zM287-650h624c-17-190-120-322-304-322-192 0-309 151-320 322" id="H"/><path d="M158 0v-1118h180V0H158zm91-1301c-68 0-125-53-125-119s57-119 125-119c69 0 126 53 126 119s-57 119-126 119" id="I"/><path d="M538 24C308 24 148-78 108-271l171-41c32 123 123 178 257 178 156 0 256-77 256-169 0-77-54-128-164-154l-186-44c-203-48-300-148-300-305 0-192 176-326 414-326 230 0 351 112 402 269l-163 42c-31-80-94-158-238-158-133 0-233 69-233 162 0 83 57 129 188 160l169 40c203 48 298 149 298 302 0 196-179 339-441 339" id="J"/><g id="b"><use transform="matrix(0.009548632812500001,0,0,0.009548632812500001,0,0)" xlink:href="#C"/><use transform="matrix(0.009548632812500001,0,0,0.009548632812500001,14.284754687500001,0)" xlink:href="#D"/><use transform="matrix(0.009548632812500001,0,0,0.009548632812500001,25.848149023437497,0)" xlink:href="#E"/><use transform="matrix(0.009548632812500001,0,0,0.009548632812500001,36.8290767578125,0)" xlink:href="#x"/><use transform="matrix(0.009548632812500001,0,0,0.009548632812500001,44.19107265625001,0)" xlink:href="#E"/><use transform="matrix(0.009548632812500001,0,0,0.009548632812500001,55.17200039062501,0)" xlink:href="#F"/><use transform="matrix(0.009548632812500001,0,0,0.009548632812500001,66.34390078125,0)" xlink:href="#G"/><use transform="matrix(0.009548632812500001,0,0,0.009548632812500001,72.550512109375,0)" xlink:href="#H"/><use transform="matrix(0.009548632812500001,0,0,0.009548632812500001,83.95157968750001,0)" xlink:href="#x"/><use transform="matrix(0.009548632812500001,0,0,0.009548632812500001,91.61913183593751,0)" xlink:href="#I"/><use transform="matrix(0.009548632812500001,0,0,0.009548632812500001,96.3552537109375,0)" xlink:href="#J"/><use transform="matrix(0.009548632812500001,0,0,0.009548632812500001,106.67732578125,0)" xlink:href="#G"/><use transform="matrix(0.009548632812500001,0,0,0.009548632812500001,113.07490976562501,0)" xlink:href="#I"/><use transform="matrix(0.009548632812500001,0,0,0.009548632812500001,117.81103164062502,0)" xlink:href="#F"/><use transform="matrix(0.009548632812500001,0,0,0.009548632812500001,128.98293203125002,0)" xlink:href="#J"/></g><path d="M180 0v-1490h901v168H370v510h643v168H370V0H180" id="K"/><g id="c"><use transform="matrix(0.009765625,0,0,0.009765625,0,0)" xlink:href="#K"/><use transform="matrix(0.009765625,0,0,0.009765625,11.806640625,0)" xlink:href="#A"/><use transform="matrix(0.009765625,0,0,0.009765625,16.650390625,0)" xlink:href="#w"/><use transform="matrix(0.009765625,0,0,0.009765625,28.28125,0)" xlink:href="#B"/></g><path d="M537 14c-226 0-379-139-379-422v-710h180v695c0 172 97 275 253 275 160 0 281-109 281-300v-670h181V0H879v-209C806-46 684 14 537 14" id="L"/><path d="M158 418v-1536h174v179h20c37-59 106-193 324-193 279 0 474 222 474 576 0 356-194 580-473 580-213 0-288-135-325-197h-14v591H158zm492-555c209 0 317-186 317-421 0-232-105-413-317-413-206 0-314 166-314 413 0 249 111 421 314 421" id="M"/><path d="M338-670V0H158v-1118h173l1 207c72-158 192-221 342-221 226 0 378 139 378 422V0H872v-695c0-172-96-275-252-275-161 0-282 109-282 300" id="N"/><path d="M611 442c-248 0-391-105-460-228l146-94c47 65 117 165 314 165 178 0 307-82 307-266v-224h-17C863-141 792-18 576-18c-268 0-472-195-472-546 0-346 197-568 476-568 216 0 288 133 326 193h17v-179h175V29c0 289-215 413-487 413zm-5-620c203 0 314-146 314-390 0-237-108-403-314-403-213 0-319 180-319 403 0 230 109 390 319 390" id="O"/><g id="d"><use transform="matrix(0.009765625,0,0,0.009765625,0,0)" xlink:href="#C"/><use transform="matrix(0.009765625,0,0,0.009765625,14.609375,0)" xlink:href="#w"/><use transform="matrix(0.009765625,0,0,0.009765625,26.6015625,0)" xlink:href="#L"/><use transform="matrix(0.009765625,0,0,0.009765625,38.427734375,0)" xlink:href="#M"/><use transform="matrix(0.009765625,0,0,0.009765625,50.673828125,0)" xlink:href="#A"/><use transform="matrix(0.009765625,0,0,0.009765625,55.517578125,0)" xlink:href="#I"/><use transform="matrix(0.009765625,0,0,0.009765625,60.361328125,0)" xlink:href="#N"/><use transform="matrix(0.009765625,0,0,0.009765625,72.177734375,0)" xlink:href="#O"/></g><path fill="#404040" d="M789 20c-398 0-667-293-667-764 0-473 273-766 655-766 315 0 558 198 612 487h-196c-61-191-204-311-415-311-262 0-471 207-471 590 0 380 208 588 482 588 249 0 420-165 425-427H828v-166h572v163c0 370-256 606-611 606" id="P"/><path fill="#404040" d="M158 0v-1118h174v172h12c41-113 157-188 290-188 26 0 70 2 91 3v181c-11-2-60-10-108-10-161 0-279 109-279 260V0H158" id="Q"/><path fill="#404040" d="M471 26C259 26 90-98 90-318c0-256 228-303 435-329 202-27 287-16 287-108 0-139-79-219-234-219-161 0-248 86-283 164l-173-57c86-203 278-265 451-265 150 0 419 46 419 395V0H815v-152h-12C765-73 660 26 471 26zm31-159c199 0 310-134 310-271v-155c-30 35-226 55-295 64-131 17-246 59-246 186 0 116 97 176 231 176" id="R"/><path fill="#404040" d="M338-670V0H158v-1118h173l1 207c72-158 192-221 342-221 226 0 378 139 378 422V0H872v-695c0-172-96-275-252-275-161 0-282 109-282 300" id="S"/><path fill="#404040" d="M537 14c-226 0-379-139-379-422v-710h180v695c0 172 97 275 253 275 160 0 281-109 281-300v-670h181V0H879v-209C806-46 684 14 537 14" id="T"/><path fill="#404040" d="M338-1490V0H158v-1490h180" id="U"/><path fill="#404040" d="M158 0v-1118h180V0H158zm91-1301c-68 0-125-53-125-119s57-119 125-119c69 0 126 53 126 119s-57 119-126 119" id="V"/><path fill="#404040" d="M598-1118v154H368v674c0 100 37 144 132 144 23 0 62-6 92-12L629-6c-37 13-88 20-134 20-193 0-307-107-307-290v-688H20v-154h168v-266h180v266h230" id="W"/><path fill="#404040" d="M140 405l46-156c120 36 205 19 263-150l32-93L54-1118h197c107 313 237 620 324 950 87-331 219-637 326-950h196L606 167c-68 178-176 259-334 259-64 0-113-12-132-21" id="X"/><g id="e"><use transform="matrix(0.009765625,0,0,0.009765625,0,0)" xlink:href="#P"/><use transform="matrix(0.009765625,0,0,0.009765625,14.921875,0)" xlink:href="#Q"/><use transform="matrix(0.009765625,0,0,0.009765625,22.451171875,0)" xlink:href="#R"/><use transform="matrix(0.009765625,0,0,0.009765625,33.681640625,0)" xlink:href="#S"/><use transform="matrix(0.009765625,0,0,0.009765625,45.498046875,0)" xlink:href="#T"/><use transform="matrix(0.009765625,0,0,0.009765625,57.32421875,0)" xlink:href="#U"/><use transform="matrix(0.009765625,0,0,0.009765625,62.16796875,0)" xlink:href="#R"/><use transform="matrix(0.009765625,0,0,0.009765625,73.3984375,0)" xlink:href="#Q"/><use transform="matrix(0.009765625,0,0,0.009765625,81.240234375,0)" xlink:href="#V"/><use transform="matrix(0.009765625,0,0,0.009765625,86.083984375,0)" xlink:href="#W"/><use transform="matrix(0.009765625,0,0,0.009765625,93.017578125,0)" xlink:href="#X"/></g><path fill="#404040" d="M645 0H180v-1490h484c435 0 692 280 692 742 0 466-257 748-711 748zM370-168h263c363 0 539-218 539-580 0-358-176-574-521-574H370v1154" id="Y"/><path fill="#404040" d="M158 0v-1118h175l1 205c55-151 181-225 313-225 147 0 245 90 285 228 53-141 190-228 352-228 194 0 352 125 352 384V0h-181v-749c0-161-105-225-225-225-151 0-243 103-243 244V0H807v-767c0-124-93-207-219-207-131 0-250 92-250 270V0H158" id="Z"/><path fill="#404040" d="M613 24c-304 0-509-231-509-576 0-350 205-580 509-580 216 0 392 114 453 309l-173 49c-33-115-133-197-280-197-223 0-326 196-326 419 0 220 103 415 326 415 150 0 252-85 285-206l172 49C1010-95 832 24 613 24" id="aa"/><g id="f"><use transform="matrix(0.009765625,0,0,0.009765625,0,0)" xlink:href="#Y"/><use transform="matrix(0.009765625,0,0,0.009765625,14.43359375,0)" xlink:href="#X"/><use transform="matrix(0.009765625,0,0,0.009765625,25.673828125,0)" xlink:href="#S"/><use transform="matrix(0.009765625,0,0,0.009765625,37.490234375,0)" xlink:href="#R"/><use transform="matrix(0.009765625,0,0,0.009765625,48.720703125,0)" xlink:href="#Z"/><use transform="matrix(0.009765625,0,0,0.009765625,66.240234375,0)" xlink:href="#V"/><use transform="matrix(0.009765625,0,0,0.009765625,71.083984375,0)" xlink:href="#aa"/><use transform="matrix(0.009765625,0,0,0.009765625,82.509765625,0)" xlink:href="#V"/><use transform="matrix(0.009765625,0,0,0.009765625,87.353515625,0)" xlink:href="#W"/><use transform="matrix(0.009765625,0,0,0.009765625,94.287109375,0)" xlink:href="#X"/></g><path fill="#404040" d="M613 24c-304 0-509-231-509-576 0-350 205-580 509-580 305 0 511 230 511 580 0 345-206 576-511 576zm0-161c226 0 329-195 329-415 0-222-103-419-329-419-223 0-326 196-326 419 0 220 103 415 326 415" id="ab"/><g id="g"><use transform="matrix(0.009765625,0,0,0.009765625,0,0)" xlink:href="#Y"/><use transform="matrix(0.009765625,0,0,0.009765625,14.43359375,0)" xlink:href="#ab"/><use transform="matrix(0.009765625,0,0,0.009765625,26.42578125,0)" xlink:href="#Z"/><use transform="matrix(0.009765625,0,0,0.009765625,43.9453125,0)" xlink:href="#R"/><use transform="matrix(0.009765625,0,0,0.009765625,55.17578125,0)" xlink:href="#V"/><use transform="matrix(0.009765625,0,0,0.009765625,60.01953125,0)" xlink:href="#S"/></g><path d="M98-1322v-168h1126v168H757V0H567v-1322H98" id="ac"/><g id="h"><use transform="matrix(0.009548632812500001,0,0,0.009548632812500001,0,0)" xlink:href="#ac"/><use transform="matrix(0.009548632812500001,0,0,0.009548632812500001,11.190997656250001,0)" xlink:href="#E"/><use transform="matrix(0.009548632812500001,0,0,0.009548632812500001,22.171925390625002,0)" xlink:href="#J"/><use transform="matrix(0.009548632812500001,0,0,0.009548632812500001,32.49399746093751,0)" xlink:href="#y"/></g><path d="M370-1490V0H180v-1490h190" id="ad"/><path d="M481 0L54-1118h197c107 314 236 620 325 951 87-331 217-637 324-951h197L670 0H481" id="ae"/><g id="i"><use transform="matrix(0.009548632812500001,0,0,0.009548632812500001,0,0)" xlink:href="#ad"/><use transform="matrix(0.009548632812500001,0,0,0.009548632812500001,5.538207031250001,0)" xlink:href="#G"/><use transform="matrix(0.009548632812500001,0,0,0.009548632812500001,11.744818359375001,0)" xlink:href="#H"/><use transform="matrix(0.009548632812500001,0,0,0.009548632812500001,23.145885937500008,0)" xlink:href="#x"/><use transform="matrix(0.009548632812500001,0,0,0.009548632812500001,30.507881835937503,0)" xlink:href="#E"/><use transform="matrix(0.009548632812500001,0,0,0.009548632812500001,41.488809570312505,0)" xlink:href="#G"/><use transform="matrix(0.009548632812500001,0,0,0.009548632812500001,47.8863935546875,0)" xlink:href="#I"/><use transform="matrix(0.009548632812500001,0,0,0.009548632812500001,52.6225154296875,0)" xlink:href="#ae"/><use transform="matrix(0.009548632812500001,0,0,0.009548632812500001,63.231046484375,0)" xlink:href="#H"/></g><path d="M645 0H180v-1490h484c435 0 692 280 692 742 0 466-257 748-711 748zM370-168h263c363 0 539-218 539-580 0-358-176-574-521-574H370v1154" id="af"/><g id="j"><use transform="matrix(0.009548632812500001,0,0,0.009548632812500001,0,0)" xlink:href="#af"/><use transform="matrix(0.009548632812500001,0,0,0.009548632812500001,14.112879296875,0)" xlink:href="#E"/><use transform="matrix(0.009548632812500001,0,0,0.009548632812500001,25.09380703125,0)" xlink:href="#G"/><use transform="matrix(0.009548632812500001,0,0,0.009548632812500001,31.58687734375,0)" xlink:href="#E"/></g><g id="k"><use transform="matrix(0.009548632812500001,0,0,0.009548632812500001,0,0)" xlink:href="#ac"/><use transform="matrix(0.009548632812500001,0,0,0.009548632812500001,12.623292578125001,0)" xlink:href="#I"/><use transform="matrix(0.009548632812500001,0,0,0.009548632812500001,17.359414453125,0)" xlink:href="#O"/><use transform="matrix(0.009548632812500001,0,0,0.009548632812500001,29.352497265625004,0)" xlink:href="#D"/><use transform="matrix(0.009548632812500001,0,0,0.009548632812500001,40.91589160156251,0)" xlink:href="#G"/></g><path d="M180 0v-1490h190v1322h690V0H180" id="ag"/><g id="l"><use transform="matrix(0.009548632812500001,0,0,0.009548632812500001,0,0)" xlink:href="#ag"/><use transform="matrix(0.009548632812500001,0,0,0.009548632812500001,11.057316796875002,0)" xlink:href="#w"/><use transform="matrix(0.009548632812500001,0,0,0.009548632812500001,22.783037890625003,0)" xlink:href="#w"/><use transform="matrix(0.009548632812500001,0,0,0.009548632812500001,34.50875898437501,0)" xlink:href="#J"/><use transform="matrix(0.009548632812500001,0,0,0.009548632812500001,44.83083105468751,0)" xlink:href="#H"/></g><g id="m"><use transform="matrix(0.009765625,0,0,0.009765625,0,0)" xlink:href="#K"/><use transform="matrix(0.009765625,0,0,0.009765625,11.1328125,0)" xlink:href="#L"/><use transform="matrix(0.009765625,0,0,0.009765625,22.958984375,0)" xlink:href="#N"/><use transform="matrix(0.009765625,0,0,0.009765625,34.775390625,0)" xlink:href="#F"/><use transform="matrix(0.009765625,0,0,0.009765625,46.201171875,0)" xlink:href="#G"/><use transform="matrix(0.009765625,0,0,0.009765625,52.744140625,0)" xlink:href="#I"/><use transform="matrix(0.009765625,0,0,0.009765625,57.587890625,0)" xlink:href="#w"/><use transform="matrix(0.009765625,0,0,0.009765625,69.580078125,0)" xlink:href="#N"/><use transform="matrix(0.009765625,0,0,0.009765625,81.396484375,0)" xlink:href="#J"/></g><path d="M657 26c-323 0-524-166-541-416h195c15 169 171 246 346 246 202 0 356-106 356-265 5-203-294-238-475-293-239-73-380-191-380-389 0-252 224-419 512-419 294 0 499 171 508 396H992c-17-145-151-228-328-228-193 0-321 102-321 242 0 156 175 211 284 241l149 41c160 44 422 134 422 412 0 244-197 432-541 432" id="ah"/><path d="M577 24c-279 0-473-224-473-580 0-354 195-576 474-576 218 0 287 134 324 193h14v-551h180V0H922v-173h-20C865-111 790 24 577 24zm27-161c203 0 314-172 314-421 0-247-108-413-314-413-212 0-317 181-317 413 0 235 108 421 317 421" id="ai"/><g id="n"><use transform="matrix(0.009765625,0,0,0.009765625,0,0)" xlink:href="#ah"/><use transform="matrix(0.009765625,0,0,0.009765625,12.83203125,0)" xlink:href="#G"/><use transform="matrix(0.009765625,0,0,0.009765625,19.47265625,0)" xlink:href="#E"/><use transform="matrix(0.009765625,0,0,0.009765625,30.703125,0)" xlink:href="#N"/><use transform="matrix(0.009765625,0,0,0.009765625,42.51953125,0)" xlink:href="#ai"/><use transform="matrix(0.009765625,0,0,0.009765625,54.765625,0)" xlink:href="#E"/><use transform="matrix(0.009765625,0,0,0.009765625,65.99609375,0)" xlink:href="#A"/><use transform="matrix(0.009765625,0,0,0.009765625,70.83984375,0)" xlink:href="#w"/><use transform="matrix(0.009765625,0,0,0.009765625,82.83203125,0)" xlink:href="#N"/><use transform="matrix(0.009765625,0,0,0.009765625,94.6484375,0)" xlink:href="#H"/></g><path d="M65 0l393-574-370-544h210c88 136 192 297 267 435 67-142 176-302 264-435h206L661-564 1053 0H844c-94-144-206-310-287-458C484-308 366-142 273 0H65" id="aj"/><path d="M677 24c-213 0-288-135-325-197h-20V0H158v-1490h180v551h14c37-59 106-193 324-193 279 0 474 222 474 576 0 356-194 580-473 580zm-27-161c209 0 317-186 317-421 0-232-105-413-317-413-206 0-314 166-314 413 0 249 111 421 314 421" id="ak"/><g id="o"><use transform="matrix(0.009765625,0,0,0.009765625,0,0)" xlink:href="#H"/><use transform="matrix(0.009765625,0,0,0.009765625,11.2109375,0)" xlink:href="#aj"/><use transform="matrix(0.009765625,0,0,0.009765625,21.6796875,0)" xlink:href="#H"/><use transform="matrix(0.009765625,0,0,0.009765625,33.33984375,0)" xlink:href="#F"/><use transform="matrix(0.009765625,0,0,0.009765625,44.765625,0)" xlink:href="#L"/><use transform="matrix(0.009765625,0,0,0.009765625,56.591796875,0)" xlink:href="#G"/><use transform="matrix(0.009765625,0,0,0.009765625,63.232421875,0)" xlink:href="#E"/><use transform="matrix(0.009765625,0,0,0.009765625,74.462890625,0)" xlink:href="#ak"/><use transform="matrix(0.009765625,0,0,0.009765625,86.708984375,0)" xlink:href="#A"/><use transform="matrix(0.009765625,0,0,0.009765625,91.552734375,0)" xlink:href="#H"/><use transform="matrix(0.009765625,0,0,0.009765625,103.212890625,0)" xlink:href="#J"/></g><path d="M798-719v166H144v-166h654" id="al"/><g id="p"><use transform="matrix(0.009765625,0,0,0.009765625,0,0)" xlink:href="#ah"/><use transform="matrix(0.009765625,0,0,0.009765625,12.83203125,0)" xlink:href="#L"/><use transform="matrix(0.009765625,0,0,0.009765625,24.658203125,0)" xlink:href="#ak"/><use transform="matrix(0.009765625,0,0,0.009765625,36.904296875,0)" xlink:href="#al"/><use transform="matrix(0.009765625,0,0,0.009765625,46.103515625,0)" xlink:href="#B"/><use transform="matrix(0.009765625,0,0,0.009765625,62.109375,0)" xlink:href="#w"/><use transform="matrix(0.009765625,0,0,0.009765625,74.1015625,0)" xlink:href="#x"/><use transform="matrix(0.009765625,0,0,0.009765625,81.943359375,0)" xlink:href="#y"/><use transform="matrix(0.009765625,0,0,0.009765625,92.919921875,0)" xlink:href="#z"/><use transform="matrix(0.009765625,0,0,0.009765625,100.322265625,0)" xlink:href="#A"/><use transform="matrix(0.009765625,0,0,0.009765625,105.166015625,0)" xlink:href="#w"/><use transform="matrix(0.009765625,0,0,0.009765625,116.796875,0)" xlink:href="#B"/><use transform="matrix(0.009765625,0,0,0.009765625,133.1640625,0)" xlink:href="#J"/></g><path d="M52 0l541-1490h220L1361 0h-200l-149-416H398L254 0H52zm404-582h497c-103-290-145-390-251-756-108 377-145 460-246 756" id="am"/><g id="q"><use transform="matrix(0.009765625,0,0,0.009765625,0,0)" xlink:href="#am"/><use transform="matrix(0.009765625,0,0,0.009765625,13.798828125,0)" xlink:href="#O"/><use transform="matrix(0.009765625,0,0,0.009765625,26.064453125,0)" xlink:href="#N"/><use transform="matrix(0.009765625,0,0,0.009765625,37.880859375,0)" xlink:href="#w"/><use transform="matrix(0.009765625,0,0,0.009765625,49.873046875,0)" xlink:href="#J"/><use transform="matrix(0.009765625,0,0,0.009765625,60.4296875,0)" xlink:href="#G"/><use transform="matrix(0.009765625,0,0,0.009765625,66.97265625,0)" xlink:href="#I"/><use transform="matrix(0.009765625,0,0,0.009765625,71.81640625,0)" xlink:href="#F"/></g><g id="r"><use transform="matrix(0.009765625,0,0,0.009765625,0,0)" xlink:href="#ah"/><use transform="matrix(0.009765625,0,0,0.009765625,12.83203125,0)" xlink:href="#M"/><use transform="matrix(0.009765625,0,0,0.009765625,25.078125,0)" xlink:href="#H"/><use transform="matrix(0.009765625,0,0,0.009765625,36.73828125,0)" xlink:href="#F"/><use transform="matrix(0.009765625,0,0,0.009765625,48.1640625,0)" xlink:href="#I"/><use transform="matrix(0.009765625,0,0,0.009765625,53.0078125,0)" xlink:href="#z"/><use transform="matrix(0.009765625,0,0,0.009765625,60.41015625,0)" xlink:href="#I"/><use transform="matrix(0.009765625,0,0,0.009765625,65.25390625,0)" xlink:href="#F"/></g><path d="M180 0v-1490h510c348 0 508 194 508 460 0 198-88 351-276 417L1256 0h-220L726-579c-117 2-238 0-356 1V0H180zm190-747h312c235 0 327-108 327-283 0-177-92-293-329-293H370v576" id="an"/><path d="M158 0v-1118h175l1 205c55-151 181-225 313-225 147 0 245 90 285 228 53-141 190-228 352-228 194 0 352 125 352 384V0h-181v-749c0-161-105-225-225-225-151 0-243 103-243 244V0H807v-767c0-124-93-207-219-207-131 0-250 92-250 270V0H158" id="ao"/><g id="s"><use transform="matrix(0.009765625,0,0,0.009765625,0,0)" xlink:href="#an"/><use transform="matrix(0.009765625,0,0,0.009765625,12.87109375,0)" xlink:href="#L"/><use transform="matrix(0.009765625,0,0,0.009765625,24.697265625,0)" xlink:href="#N"/><use transform="matrix(0.009765625,0,0,0.009765625,36.513671875,0)" xlink:href="#G"/><use transform="matrix(0.009765625,0,0,0.009765625,43.056640625,0)" xlink:href="#I"/><use transform="matrix(0.009765625,0,0,0.009765625,47.900390625,0)" xlink:href="#ao"/><use transform="matrix(0.009765625,0,0,0.009765625,65.419921875,0)" xlink:href="#H"/></g><g id="t"><use transform="matrix(0.009765625,0,0,0.009765625,0,0)" xlink:href="#I"/><use transform="matrix(0.009765625,0,0,0.009765625,4.84375,0)" xlink:href="#N"/><use transform="matrix(0.009765625,0,0,0.009765625,16.66015625,0)" xlink:href="#G"/><use transform="matrix(0.009765625,0,0,0.009765625,23.0078125,0)" xlink:href="#H"/><use transform="matrix(0.009765625,0,0,0.009765625,34.66796875,0)" xlink:href="#x"/><use transform="matrix(0.009765625,0,0,0.009765625,42.509765625,0)" xlink:href="#ae"/><use transform="matrix(0.009765625,0,0,0.009765625,53.359375,0)" xlink:href="#H"/><use transform="matrix(0.009765625,0,0,0.009765625,65.01953125,0)" xlink:href="#N"/><use transform="matrix(0.009765625,0,0,0.009765625,76.8359375,0)" xlink:href="#G"/><use transform="matrix(0.009765625,0,0,0.009765625,83.37890625,0)" xlink:href="#I"/><use transform="matrix(0.009765625,0,0,0.009765625,88.22265625,0)" xlink:href="#w"/><use transform="matrix(0.009765625,0,0,0.009765625,100.21484375,0)" xlink:href="#N"/><use transform="matrix(0.009765625,0,0,0.009765625,112.03125,0)" xlink:href="#J"/></g><path d="M180 0v-1490h528c311 0 458 177 458 395 0 191-114 278-244 313v14c139 9 302 137 302 371 0 225-148 397-499 397H180zm190-168h350c232 0 321-102 321-231 0-149-120-277-311-277H370v508zm0-668h328c160 0 286-101 286-255 0-129-87-231-280-231H370v486" id="ap"/><g id="u"><use transform="matrix(0.009765625,0,0,0.009765625,0,0)" xlink:href="#ap"/><use transform="matrix(0.009765625,0,0,0.009765625,13.0859375,0)" xlink:href="#x"/><use transform="matrix(0.009765625,0,0,0.009765625,20.615234375,0)" xlink:href="#E"/><use transform="matrix(0.009765625,0,0,0.009765625,31.845703125,0)" xlink:href="#N"/><use transform="matrix(0.009765625,0,0,0.009765625,43.662109375,0)" xlink:href="#F"/><use transform="matrix(0.009765625,0,0,0.009765625,55.087890625,0)" xlink:href="#D"/><use transform="matrix(0.009765625,0,0,0.009765625,66.9140625,0)" xlink:href="#H"/><use transform="matrix(0.009765625,0,0,0.009765625,78.57421875,0)" xlink:href="#J"/></g></defs></g></svg>