<svg xmlns="http://www.w3.org/2000/svg" xmlns:xlink="http://www.w3.org/1999/xlink" xmlns:lucid="lucid" width="2083" height="385.15"><g transform="translate(161.9999500000033 -139)" lucid:page-tab-id="0_0"><path d="M-120 146a6 6 0 0 1 6-6h348a6 6 0 0 1 6 6v39.58a6 6 0 0 1-6 6h-348a6 6 0 0 1-6-6z" stroke="#e45f4c" stroke-width="2" fill="#ffd9d9"/><use xlink:href="#a" transform="matrix(1,0,0,1,-108,152) translate(0 20.6944875)"/><use xlink:href="#b" transform="matrix(1,0,0,1,-108,152) translate(96.9854634765625 20.6944875)"/><path d="M-120 246a6 6 0 0 1 6-6h348a6 6 0 0 1 6 6v39.58a6 6 0 0 1-6 6h-348a6 6 0 0 1-6-6z" stroke="#e45f4c" stroke-width="2" fill="#fff"/><use xlink:href="#c" transform="matrix(1,0,0,1,-108,252) translate(0 21.125)"/><path d="M300 246a6 6 0 0 1 6-6h348a6 6 0 0 1 6 6v39.58a6 6 0 0 1-6 6H306a6 6 0 0 1-6-6z" stroke="#e45f4c" stroke-width="2" fill="#fff"/><use xlink:href="#d" transform="matrix(1,0,0,1,312,252) translate(0 21.125)"/><path d="M720 246a6 6 0 0 1 6-6h348a6 6 0 0 1 6 6v39.58a6 6 0 0 1-6 6H726a6 6 0 0 1-6-6z" stroke="#e45f4c" stroke-width="2" fill="#fff"/><use xlink:href="#e" transform="matrix(1,0,0,1,732,252) translate(0 21.125)"/><path d="M1140 246a6 6 0 0 1 6-6h348a6 6 0 0 1 6 6v39.58a6 6 0 0 1-6 6h-348a6 6 0 0 1-6-6z" stroke="#e45f4c" stroke-width="2" fill="#fff"/><use xlink:href="#f" transform="matrix(1,0,0,1,1152,252) translate(0 21.125)"/><path d="M1560 246a6 6 0 0 1 6-6h348a6 6 0 0 1 6 6v39.58a6 6 0 0 1-6 6h-348a6 6 0 0 1-6-6z" stroke="#e45f4c" stroke-width="2" fill="#fff"/><use xlink:href="#g" transform="matrix(1,0,0,1,1572,252) translate(0 21.125)"/><path d="M60 193.58V238" stroke="#6f7681" stroke-width="2" fill="none"/><path d="M60.98 193.6h-1.95v-1.02h1.95zM60.98 239h-1.95v-1.03h1.95z" stroke="#6f7681" stroke-width=".05" fill="#6f7681"/><path d="M60 193.58v4.2a18 18 0 0 0 18 18h384a18 18 0 0 1 18 18V238" stroke="#6f7681" stroke-width="2" fill="none"/><path d="M60.98 193.6h-1.95v-1.02h1.95zM480.98 239h-1.96v-1.03h1.96z" stroke="#6f7681" stroke-width=".05" fill="#6f7681"/><path d="M60 193.58v4.2a18 18 0 0 0 18 18h804a18 18 0 0 1 18 18V238" stroke="#6f7681" stroke-width="2" fill="none"/><path d="M60.98 193.6h-1.95v-1.02h1.95zM900.98 239H899v-1.03H901z" stroke="#6f7681" stroke-width=".05" fill="#6f7681"/><path d="M-80 337.58a6 6 0 0 1 6-6h308a6 6 0 0 1 6 6v39.57a6 6 0 0 1-6 6H-74a6 6 0 0 1-6-6z" stroke="#e45f4c" stroke-width="2" fill="#ffd9d9"/><use xlink:href="#h" transform="matrix(1,0,0,1,-68,343.57682291666674) translate(0 20.6944875)"/><path d="M-122 265.8h-21a18 18 0 0 0-18 18v55.56a18 18 0 0 0 18 18h61" stroke="#6f7681" stroke-width="2" fill="none"/><path d="M-121 266.76h-1.03v-1.95h1.03zM-81 358.34h-1.03v-1.95H-81z" stroke="#6f7681" stroke-width=".05" fill="#6f7681"/><path d="M-80 406a6 6 0 0 1 6-6h308a6 6 0 0 1 6 6v39.58a6 6 0 0 1-6 6H-74a6 6 0 0 1-6-6z" stroke="#e45f4c" stroke-width="2" fill="#ffd9d9"/><use xlink:href="#i" transform="matrix(1,0,0,1,-68,412) translate(0 20.6944875)"/><path d="M-80 477.58a6 6 0 0 1 6-6h308a6 6 0 0 1 6 6v39.57a6 6 0 0 1-6 6H-74a6 6 0 0 1-6-6z" stroke="#e45f4c" stroke-width="2" fill="#ffd9d9"/><use xlink:href="#j" transform="matrix(1,0,0,1,-68,483.57682291666674) translate(0 20.6944875)"/><path d="M340 337.58a6 6 0 0 1 6-6h308a6 6 0 0 1 6 6v39.57a6 6 0 0 1-6 6H346a6 6 0 0 1-6-6z" stroke="#e45f4c" stroke-width="2" fill="#ffd9d9"/><use xlink:href="#k" transform="matrix(1,0,0,1,352,343.57682291666674) translate(0 20.6944875)"/><path d="M340 406a6 6 0 0 1 6-6h308a6 6 0 0 1 6 6v39.58a6 6 0 0 1-6 6H346a6 6 0 0 1-6-6z" stroke="#e45f4c" stroke-width="2" fill="#ffd9d9"/><use xlink:href="#l" transform="matrix(1,0,0,1,352,412) translate(0 20.6944875)"/><path d="M-122 265.8h-21a18 18 0 0 0-18 18v124a18 18 0 0 0 18 18h61" stroke="#6f7681" stroke-width="2" fill="none"/><path d="M-121 266.76h-1.03v-1.95h1.03zM-81 426.76h-1.03v-1.95H-81z" stroke="#6f7681" stroke-width=".05" fill="#6f7681"/><path d="M298 265.8h-21a18 18 0 0 0-18 18v55.56a18 18 0 0 0 18 18h61" stroke="#6f7681" stroke-width="2" fill="none"/><path d="M299 266.76h-1.03v-1.95H299zM339 358.34h-1.03v-1.95H339z" stroke="#6f7681" stroke-width=".05" fill="#6f7681"/><path d="M298 265.8h-21a18 18 0 0 0-18 18v124a18 18 0 0 0 18 18h61" stroke="#6f7681" stroke-width="2" fill="none"/><path d="M299 266.76h-1.03v-1.95H299zM339 426.76h-1.03v-1.95H339z" stroke="#6f7681" stroke-width=".05" fill="#6f7681"/><path d="M760 337.58a6 6 0 0 1 6-6h308a6 6 0 0 1 6 6v39.57a6 6 0 0 1-6 6H766a6 6 0 0 1-6-6z" stroke="#e45f4c" stroke-width="2" fill="#ffd9d9"/><use xlink:href="#m" transform="matrix(1,0,0,1,772,343.57682291666674) translate(0 21.125)"/><path d="M760 406a6 6 0 0 1 6-6h308a6 6 0 0 1 6 6v39.58a6 6 0 0 1-6 6H766a6 6 0 0 1-6-6z" stroke="#e45f4c" stroke-width="2" fill="#ffd9d9"/><use xlink:href="#n" transform="matrix(1,0,0,1,772,412) translate(0 21.125)"/><use xlink:href="#o" transform="matrix(1,0,0,1,772,412) translate(111.93359375 21.125)"/><path d="M760 477.58a6 6 0 0 1 6-6h308a6 6 0 0 1 6 6v39.57a6 6 0 0 1-6 6H766a6 6 0 0 1-6-6z" stroke="#e45f4c" stroke-width="2" fill="#ffd9d9"/><use xlink:href="#p" transform="matrix(1,0,0,1,772,483.57682291666674) translate(0 21.125)"/><path d="M-122 265.8h-21a18 18 0 0 0-18 18v195.56a18 18 0 0 0 18 18h61" stroke="#6f7681" stroke-width="2" fill="none"/><path d="M-121 266.76h-1.03v-1.95h1.03zM-81 498.34h-1.03v-1.95H-81z" stroke="#6f7681" stroke-width=".05" fill="#6f7681"/><path d="M718 265.8h-21a18 18 0 0 0-18 18v55.56a18 18 0 0 0 18 18h61" stroke="#6f7681" stroke-width="2" fill="none"/><path d="M719 266.76h-1.03v-1.95H719zM759 358.34h-1.03v-1.95H759z" stroke="#6f7681" stroke-width=".05" fill="#6f7681"/><path d="M718 265.8h-21a18 18 0 0 0-18 18v124a18 18 0 0 0 18 18h61" stroke="#6f7681" stroke-width="2" fill="none"/><path d="M719 266.76h-1.03v-1.95H719zM759 426.76h-1.03v-1.95H759z" stroke="#6f7681" stroke-width=".05" fill="#6f7681"/><path d="M718 265.8h-21a18 18 0 0 0-18 18v195.56a18 18 0 0 0 18 18h61" stroke="#6f7681" stroke-width="2" fill="none"/><path d="M719 266.76h-1.03v-1.95H719zM759 498.34h-1.03v-1.95H759z" stroke="#6f7681" stroke-width=".05" fill="#6f7681"/><path d="M60 193.58v4.2a18 18 0 0 0 18 18h1224a18 18 0 0 1 18 18V238" stroke="#6f7681" stroke-width="2" fill="none"/><path d="M60.98 193.6h-1.95v-1.02h1.95zM1320.97 239h-1.94v-1.03h1.94z" stroke="#6f7681" stroke-width=".05" fill="#6f7681"/><path d="M1138 265.8h-21a18 18 0 0 0-18 18v55.56a18 18 0 0 0 18 18h61" stroke="#6f7681" stroke-width="2" fill="none"/><path d="M1139 266.76h-1.03v-1.95h1.03zM1179 358.34h-1.03v-1.95h1.03z" stroke="#6f7681" stroke-width=".05" fill="#6f7681"/><path d="M1138 265.8h-21a18 18 0 0 0-18 18v124a18 18 0 0 0 18 18h61" stroke="#6f7681" stroke-width="2" fill="none"/><path d="M1139 266.76h-1.03v-1.95h1.03zM1179 426.76h-1.03v-1.95h1.03z" stroke="#6f7681" stroke-width=".05" fill="#6f7681"/><path d="M1600 406a6 6 0 0 1 6-6h308a6 6 0 0 1 6 6v39.58a6 6 0 0 1-6 6h-308a6 6 0 0 1-6-6z" stroke="#e45f4c" stroke-width="2" fill="#ffd9d9"/><use xlink:href="#q" transform="matrix(1,0,0,1,1612,412) translate(0 21.125)"/><path d="M60 193.58v4.2a18 18 0 0 0 18 18h1644a18 18 0 0 1 18 18V238" stroke="#6f7681" stroke-width="2" fill="none"/><path d="M60.98 193.6h-1.95v-1.02h1.95zM1740.97 239h-1.94v-1.03h1.94z" stroke="#6f7681" stroke-width=".05" fill="#6f7681"/><path d="M1558 265.8h-21a18 18 0 0 0-18 18v55.56a18 18 0 0 0 18 18h61" stroke="#6f7681" stroke-width="2" fill="none"/><path d="M1559 266.76h-1.03v-1.95h1.03zM1599 358.34h-1.03v-1.95h1.03z" stroke="#6f7681" stroke-width=".05" fill="#6f7681"/><path d="M1558 265.8h-21a18 18 0 0 0-18 18v124a18 18 0 0 0 18 18h61" stroke="#6f7681" stroke-width="2" fill="none"/><path d="M1559 266.76h-1.03v-1.95h1.03zM1599 426.76h-1.03v-1.95h1.03z" stroke="#6f7681" stroke-width=".05" fill="#6f7681"/><path d="M1600 337.58a6 6 0 0 1 6-6h308a6 6 0 0 1 6 6v39.57a6 6 0 0 1-6 6h-308a6 6 0 0 1-6-6z" stroke="#e45f4c" stroke-width="2" fill="#ffd9d9"/><use xlink:href="#r" transform="matrix(1,0,0,1,1612,343.57682291666674) translate(0 21.125)"/><path d="M1180 406a6 6 0 0 1 6-6h308a6 6 0 0 1 6 6v39.58a6 6 0 0 1-6 6h-308a6 6 0 0 1-6-6z" stroke="#e45f4c" stroke-width="2" fill="#ffd9d9"/><use xlink:href="#s" transform="matrix(1,0,0,1,1192,412) translate(0 21.125)"/><use xlink:href="#t" transform="matrix(1,0,0,1,1192,412) translate(82.705078125 21.125)"/><path d="M1180 337.58a6 6 0 0 1 6-6h308a6 6 0 0 1 6 6v39.57a6 6 0 0 1-6 6h-308a6 6 0 0 1-6-6z" stroke="#e45f4c" stroke-width="2" fill="#ffd9d9"/><g><use xlink:href="#u" transform="matrix(1,0,0,1,1192,343.57682291666674) translate(0 21.125)"/></g><defs><path d="M449 0L49-1490h333c89 395 194 758 253 1185 65-426 176-790 269-1185h317c93 394 201 758 268 1181 60-425 164-788 253-1181h334L1675 0h-348c-90-376-204-711-266-1118C1004-714 886-373 798 0H449" id="v"/><path d="M628 22C291 22 81-210 81-554c0-346 210-578 547-578 336 0 547 232 547 578 0 344-211 576-547 576zm0-236c160 0 242-146 242-341 0-197-82-341-242-341S387-753 387-555c0 195 81 341 241 341" id="w"/><path d="M128 0v-1118h290v195h12c54-169 184-238 367-200v268c-27-8-86-15-130-15-138 0-239 95-239 234V0H128" id="x"/><path d="M128 0v-1490h300v802h17l366-430h347L740-633 1179 0H826L514-456l-86 97V0H128" id="y"/><path d="M750-1118v229H516V0H217v-889H20v-229h197v-86c0-238 156-356 363-356 94 0 178 20 215 31l-54 226c-25-7-61-15-100-15-123-3-131 84-125 200h234" id="z"/><path d="M428-1490V0H128v-1490h300" id="A"/><path d="M361 0L31-1118h315c68 295 127 523 188 845 63-317 128-551 199-845h276c71 296 131 525 196 846 57-321 119-552 186-846h319L1378 0h-305c-73-261-148-486-204-771C813-484 740-261 666 0H361" id="B"/><g id="a"><use transform="matrix(0.009548632812500001,0,0,0.009548632812500001,0,0)" xlink:href="#v"/><use transform="matrix(0.009548632812500001,0,0,0.009548632812500001,19.316884179687502,0)" xlink:href="#w"/><use transform="matrix(0.009548632812500001,0,0,0.009548632812500001,31.3099669921875,0)" xlink:href="#x"/><use transform="matrix(0.009548632812500001,0,0,0.009548632812500001,39.57908300781251,0)" xlink:href="#y"/><use transform="matrix(0.009548632812500001,0,0,0.009548632812500001,50.922858789062516,0)" xlink:href="#z"/><use transform="matrix(0.009548632812500001,0,0,0.009548632812500001,58.70499453125001,0)" xlink:href="#A"/><use transform="matrix(0.009548632812500001,0,0,0.009548632812500001,64.00448574218751,0)" xlink:href="#w"/><use transform="matrix(0.009548632812500001,0,0,0.009548632812500001,75.73020683593751,0)" xlink:href="#B"/></g><path d="M786 20C389 20 94-260 94-744c0-487 299-766 692-766 339 0 597 194 641 529h-309c-28-162-156-258-326-258-233 0-388 179-388 495 0 323 157 493 387 493 170 0 298-97 328-259h309c-34 277-266 530-642 530" id="C"/><path d="M428-647V0H128v-1490h294v586c65-146 175-228 341-228 232 0 385 159 385 421V0H847v-659c0-139-76-222-202-222-128 0-217 86-217 234" id="D"/><path d="M440 22C227 22 68-92 68-313c0-250 202-322 422-343 195-21 271-24 271-105 0-95-63-149-175-149-116 0-187 57-211 129l-275-46c57-194 237-305 487-305 240 0 474 108 474 379V0H777v-155h-10C713-51 605 22 440 22zm85-211c140 0 238-93 238-211v-121c-37 26-156 42-222 51-111 16-185 59-185 149 0 87 70 132 169 132" id="E"/><path d="M628 22C291 22 81-210 81-554c0-346 210-578 547-578 265 0 455 142 497 372l-279 52c-25-116-99-188-215-188-160 0-244 139-244 341 0 200 84 341 244 341 116 0 193-74 217-195l279 51C1085-123 896 22 628 22" id="F"/><path d="M683-1118v229H474v562c0 71 29 104 102 104 23 0 73-7 95-13l43 225C647 9 580 16 520 16 296 16 174-96 174-301v-588H20v-229h154v-266h300v266h209" id="G"/><path d="M633 22C291 22 81-200 81-553c0-345 210-579 537-579 292 0 525 185 525 567v84H378c7 183 109 277 260 277 105 0 184-46 216-132l272 51C1071-99 893 22 633 22zM380-669h474c-15-146-94-237-233-237-143 0-229 99-241 237" id="H"/><path d="M128 0v-1118h300V0H128zm150-1264c-91 0-165-68-165-154 0-85 74-154 165-154 90 0 165 69 165 154 0 86-75 154-165 154" id="I"/><path d="M572 22C302 22 117-98 78-306l279-48c29 105 101 156 224 156 114 0 185-48 185-115 0-118-228-130-337-155-215-49-322-150-322-317 0-215 187-347 470-347 265 0 424 116 466 298l-266 47c-24-76-87-130-196-130-98 0-174 46-174 113 0 56 38 95 144 117l201 40c216 44 320 143 320 302 0 220-207 367-500 367" id="J"/><g id="b"><use transform="matrix(0.009548632812500001,0,0,0.009548632812500001,0,0)" xlink:href="#C"/><use transform="matrix(0.009548632812500001,0,0,0.009548632812500001,14.466178710937502,0)" xlink:href="#D"/><use transform="matrix(0.009548632812500001,0,0,0.009548632812500001,26.640685546875005,0)" xlink:href="#E"/><use transform="matrix(0.009548632812500001,0,0,0.009548632812500001,37.994009960937504,0)" xlink:href="#x"/><use transform="matrix(0.009548632812500001,0,0,0.009548632812500001,45.6902080078125,0)" xlink:href="#E"/><use transform="matrix(0.009548632812500001,0,0,0.009548632812500001,57.043532421875,0)" xlink:href="#F"/><use transform="matrix(0.009548632812500001,0,0,0.009548632812500001,68.5496349609375,0)" xlink:href="#G"/><use transform="matrix(0.009548632812500001,0,0,0.009548632812500001,75.5201369140625,0)" xlink:href="#H"/><use transform="matrix(0.009548632812500001,0,0,0.009548632812500001,87.1694689453125,0)" xlink:href="#x"/><use transform="matrix(0.009548632812500001,0,0,0.009548632812500001,95.27625820312501,0)" xlink:href="#I"/><use transform="matrix(0.009548632812500001,0,0,0.009548632812500001,100.57574941406251,0)" xlink:href="#J"/><use transform="matrix(0.009548632812500001,0,0,0.009548632812500001,111.52803125000001,0)" xlink:href="#G"/><use transform="matrix(0.009548632812500001,0,0,0.009548632812500001,118.68950585937502,0)" xlink:href="#I"/><use transform="matrix(0.009548632812500001,0,0,0.009548632812500001,123.98899707031254,0)" xlink:href="#F"/><use transform="matrix(0.009548632812500001,0,0,0.009548632812500001,135.49509960937502,0)" xlink:href="#J"/></g><path d="M135 0v-1490h980v253H440v416h609v249H440V0H135" id="K"/><g id="c"><use transform="matrix(0.009765625,0,0,0.009765625,0,0)" xlink:href="#K"/><use transform="matrix(0.009765625,0,0,0.009765625,11.73828125,0)" xlink:href="#A"/><use transform="matrix(0.009765625,0,0,0.009765625,17.158203125,0)" xlink:href="#w"/><use transform="matrix(0.009765625,0,0,0.009765625,29.150390625,0)" xlink:href="#B"/></g><path d="M513 14c-232 0-385-159-385-421v-711h300v659c0 139 76 222 202 222 127 0 217-86 217-234v-647h301V0H864l-4-232C797-74 683 14 513 14" id="L"/><path d="M128 418v-1536h295v188h14c41-89 129-202 319-202 248 0 453 193 453 575 0 372-197 576-455 576-183 0-275-108-317-198h-9v597H128zm534-640c156 0 240-139 240-336 0-196-83-334-240-334-154 0-241 131-241 334 0 202 88 336 241 336" id="M"/><path d="M428-647V0H128v-1118h283l4 231c63-156 176-245 348-245 232 0 384 159 384 421V0H847v-659c0-139-76-222-202-222-128 0-217 86-217 234" id="N"/><path d="M625 442c-280 0-454-114-503-274l258-72c28 63 97 128 243 128 153 0 246-69 246-216v-206h-23C805-108 717-16 536-16 284-16 81-191 81-561c0-378 208-571 456-571 188 0 280 113 321 202h13v-188h295V-9c0 303-226 451-541 451zm5-686c153 0 240-119 240-319 0-198-86-329-240-329-158 0-241 137-241 329 0 195 85 319 241 319" id="O"/><g id="d"><use transform="matrix(0.009765625,0,0,0.009765625,0,0)" xlink:href="#C"/><use transform="matrix(0.009765625,0,0,0.009765625,14.794921875,0)" xlink:href="#w"/><use transform="matrix(0.009765625,0,0,0.009765625,27.060546875,0)" xlink:href="#L"/><use transform="matrix(0.009765625,0,0,0.009765625,39.51171875,0)" xlink:href="#M"/><use transform="matrix(0.009765625,0,0,0.009765625,52.119140625,0)" xlink:href="#A"/><use transform="matrix(0.009765625,0,0,0.009765625,57.5390625,0)" xlink:href="#I"/><use transform="matrix(0.009765625,0,0,0.009765625,62.958984375,0)" xlink:href="#N"/><use transform="matrix(0.009765625,0,0,0.009765625,75.41015625,0)" xlink:href="#O"/></g><path fill="#404040" d="M795 20C377 20 94-272 94-743c0-483 302-767 694-767 335 0 593 206 635 500h-310c-42-142-154-229-320-229-230 0-389 177-389 493s154 495 393 495c212 0 340-120 345-311H818v-232h620v186c0 391-269 628-643 628" id="P"/><path fill="#404040" d="M128 0v-1118h290v195h12c54-169 184-238 367-200v268c-27-8-86-15-130-15-138 0-239 95-239 234V0H128" id="Q"/><path fill="#404040" d="M440 22C227 22 68-92 68-313c0-250 202-322 422-343 195-21 271-24 271-105 0-95-63-149-175-149-116 0-187 57-211 129l-275-46c57-194 237-305 487-305 240 0 474 108 474 379V0H777v-155h-10C713-51 605 22 440 22zm85-211c140 0 238-93 238-211v-121c-37 26-156 42-222 51-111 16-185 59-185 149 0 87 70 132 169 132" id="R"/><path fill="#404040" d="M428-647V0H128v-1118h283l4 231c63-156 176-245 348-245 232 0 384 159 384 421V0H847v-659c0-139-76-222-202-222-128 0-217 86-217 234" id="S"/><path fill="#404040" d="M513 14c-232 0-385-159-385-421v-711h300v659c0 139 76 222 202 222 127 0 217-86 217-234v-647h301V0H864l-4-232C797-74 683 14 513 14" id="T"/><path fill="#404040" d="M428-1490V0H128v-1490h300" id="U"/><path fill="#404040" d="M128 0v-1118h300V0H128zm150-1264c-91 0-165-68-165-154 0-85 74-154 165-154 90 0 165 69 165 154 0 86-75 154-165 154" id="V"/><path fill="#404040" d="M683-1118v229H474v562c0 71 29 104 102 104 23 0 73-7 95-13l43 225C647 9 580 16 520 16 296 16 174-96 174-301v-588H20v-229h154v-266h300v266h209" id="W"/><path fill="#404040" d="M120 396l69-226c123 42 245 23 254-107l8-60L31-1118h319c87 288 199 559 259 872 72-308 185-583 277-872h315L726 132c-68 181-186 294-410 294-79 0-153-13-196-30" id="X"/><g id="e"><use transform="matrix(0.009765625,0,0,0.009765625,0,0)" xlink:href="#P"/><use transform="matrix(0.009765625,0,0,0.009765625,15.009765625,0)" xlink:href="#Q"/><use transform="matrix(0.009765625,0,0,0.009765625,22.880859375,0)" xlink:href="#R"/><use transform="matrix(0.009765625,0,0,0.009765625,34.4921875,0)" xlink:href="#S"/><use transform="matrix(0.009765625,0,0,0.009765625,46.943359375,0)" xlink:href="#T"/><use transform="matrix(0.009765625,0,0,0.009765625,59.39453125,0)" xlink:href="#U"/><use transform="matrix(0.009765625,0,0,0.009765625,64.814453125,0)" xlink:href="#R"/><use transform="matrix(0.009765625,0,0,0.009765625,76.42578125,0)" xlink:href="#Q"/><use transform="matrix(0.009765625,0,0,0.009765625,84.716796875,0)" xlink:href="#V"/><use transform="matrix(0.009765625,0,0,0.009765625,90.13671875,0)" xlink:href="#W"/><use transform="matrix(0.009765625,0,0,0.009765625,97.900390625,0)" xlink:href="#X"/></g><path fill="#404040" d="M659 0H135v-1490h529c448 0 721 280 721 744 0 466-273 746-726 746zM440-263h204c287 0 437-148 437-483 0-333-150-481-435-481H440v964" id="Y"/><path fill="#404040" d="M128 0v-1118h278l12 217c60-163 185-234 319-234 143 0 236 81 288 251 63-172 205-251 359-251 205 0 357 138 357 381V0h-301v-697c0-126-76-187-177-187-114 0-184 79-184 196V0H789v-705c0-109-72-179-174-179-106 0-187 74-187 208V0H128" id="Z"/><path fill="#404040" d="M628 22C291 22 81-210 81-554c0-346 210-578 547-578 265 0 455 142 497 372l-279 52c-25-116-99-188-215-188-160 0-244 139-244 341 0 200 84 341 244 341 116 0 193-74 217-195l279 51C1085-123 896 22 628 22" id="aa"/><g id="f"><use transform="matrix(0.009765625,0,0,0.009765625,0,0)" xlink:href="#Y"/><use transform="matrix(0.009765625,0,0,0.009765625,14.443359375,0)" xlink:href="#X"/><use transform="matrix(0.009765625,0,0,0.009765625,26.484375,0)" xlink:href="#S"/><use transform="matrix(0.009765625,0,0,0.009765625,38.935546875,0)" xlink:href="#R"/><use transform="matrix(0.009765625,0,0,0.009765625,50.546875,0)" xlink:href="#Z"/><use transform="matrix(0.009765625,0,0,0.009765625,68.798828125,0)" xlink:href="#V"/><use transform="matrix(0.009765625,0,0,0.009765625,74.21875,0)" xlink:href="#aa"/><use transform="matrix(0.009765625,0,0,0.009765625,85.986328125,0)" xlink:href="#V"/><use transform="matrix(0.009765625,0,0,0.009765625,91.40625,0)" xlink:href="#W"/><use transform="matrix(0.009765625,0,0,0.009765625,99.169921875,0)" xlink:href="#X"/></g><path fill="#404040" d="M628 22C291 22 81-210 81-554c0-346 210-578 547-578 336 0 547 232 547 578 0 344-211 576-547 576zm0-236c160 0 242-146 242-341 0-197-82-341-242-341S387-753 387-555c0 195 81 341 241 341" id="ab"/><g id="g"><use transform="matrix(0.009765625,0,0,0.009765625,0,0)" xlink:href="#Y"/><use transform="matrix(0.009765625,0,0,0.009765625,14.443359375,0)" xlink:href="#ab"/><use transform="matrix(0.009765625,0,0,0.009765625,26.708984375,0)" xlink:href="#Z"/><use transform="matrix(0.009765625,0,0,0.009765625,44.9609375,0)" xlink:href="#R"/><use transform="matrix(0.009765625,0,0,0.009765625,56.572265625,0)" xlink:href="#V"/><use transform="matrix(0.009765625,0,0,0.009765625,61.9921875,0)" xlink:href="#S"/></g><path d="M98-1322v-168h1126v168H757V0H567v-1322H98" id="ac"/><path d="M471 26C259 26 90-98 90-318c0-256 228-303 435-329 202-27 287-16 287-108 0-139-79-219-234-219-161 0-248 86-283 164l-173-57c86-203 278-265 451-265 150 0 419 46 419 395V0H815v-152h-12C765-73 660 26 471 26zm31-159c199 0 310-134 310-271v-155c-30 35-226 55-295 64-131 17-246 59-246 186 0 116 97 176 231 176" id="ad"/><path d="M538 24C308 24 148-78 108-271l171-41c32 123 123 178 257 178 156 0 256-77 256-169 0-77-54-128-164-154l-186-44c-203-48-300-148-300-305 0-192 176-326 414-326 230 0 351 112 402 269l-163 42c-31-80-94-158-238-158-133 0-233 69-233 162 0 83 57 129 188 160l169 40c203 48 298 149 298 302 0 196-179 339-441 339" id="ae"/><path d="M158 0v-1490h180v865h22l478-493h223L593-638 1096 0H865L456-523 338-412V0H158" id="af"/><g id="h"><use transform="matrix(0.009548632812500001,0,0,0.009548632812500001,0,0)" xlink:href="#ac"/><use transform="matrix(0.009548632812500001,0,0,0.009548632812500001,11.190997656250001,0)" xlink:href="#ad"/><use transform="matrix(0.009548632812500001,0,0,0.009548632812500001,22.171925390625002,0)" xlink:href="#ae"/><use transform="matrix(0.009548632812500001,0,0,0.009548632812500001,32.49399746093751,0)" xlink:href="#af"/></g><path d="M370-1490V0H180v-1490h190" id="ag"/><path d="M598-1118v154H368v674c0 100 37 144 132 144 23 0 62-6 92-12L629-6c-37 13-88 20-134 20-193 0-307-107-307-290v-688H20v-154h168v-266h180v266h230" id="ah"/><path d="M628 24c-324 0-524-230-524-574 0-343 198-582 503-582 237 0 487 146 487 559v75H286c9 234 145 362 343 362 132 0 231-58 273-172l174 48C1024-91 857 24 628 24zM287-650h624c-17-190-120-322-304-322-192 0-309 151-320 322" id="ai"/><path d="M158 0v-1118h174v172h12c41-113 157-188 290-188 26 0 70 2 91 3v181c-11-2-60-10-108-10-161 0-279 109-279 260V0H158" id="aj"/><path d="M158 0v-1118h180V0H158zm91-1301c-68 0-125-53-125-119s57-119 125-119c69 0 126 53 126 119s-57 119-126 119" id="ak"/><path d="M481 0L54-1118h197c107 314 236 620 325 951 87-331 217-637 324-951h197L670 0H481" id="al"/><g id="i"><use transform="matrix(0.009548632812500001,0,0,0.009548632812500001,0,0)" xlink:href="#ag"/><use transform="matrix(0.009548632812500001,0,0,0.009548632812500001,5.538207031250001,0)" xlink:href="#ah"/><use transform="matrix(0.009548632812500001,0,0,0.009548632812500001,11.744818359375001,0)" xlink:href="#ai"/><use transform="matrix(0.009548632812500001,0,0,0.009548632812500001,23.145885937500008,0)" xlink:href="#aj"/><use transform="matrix(0.009548632812500001,0,0,0.009548632812500001,30.507881835937503,0)" xlink:href="#ad"/><use transform="matrix(0.009548632812500001,0,0,0.009548632812500001,41.488809570312505,0)" xlink:href="#ah"/><use transform="matrix(0.009548632812500001,0,0,0.009548632812500001,47.8863935546875,0)" xlink:href="#ak"/><use transform="matrix(0.009548632812500001,0,0,0.009548632812500001,52.6225154296875,0)" xlink:href="#al"/><use transform="matrix(0.009548632812500001,0,0,0.009548632812500001,63.231046484375,0)" xlink:href="#ai"/></g><path d="M645 0H180v-1490h484c435 0 692 280 692 742 0 466-257 748-711 748zM370-168h263c363 0 539-218 539-580 0-358-176-574-521-574H370v1154" id="am"/><g id="j"><use transform="matrix(0.009548632812500001,0,0,0.009548632812500001,0,0)" xlink:href="#am"/><use transform="matrix(0.009548632812500001,0,0,0.009548632812500001,14.112879296875,0)" xlink:href="#ad"/><use transform="matrix(0.009548632812500001,0,0,0.009548632812500001,25.09380703125,0)" xlink:href="#ah"/><use transform="matrix(0.009548632812500001,0,0,0.009548632812500001,31.58687734375,0)" xlink:href="#ad"/></g><path d="M611 442c-248 0-391-105-460-228l146-94c47 65 117 165 314 165 178 0 307-82 307-266v-224h-17C863-141 792-18 576-18c-268 0-472-195-472-546 0-346 197-568 476-568 216 0 288 133 326 193h17v-179h175V29c0 289-215 413-487 413zm-5-620c203 0 314-146 314-390 0-237-108-403-314-403-213 0-319 180-319 403 0 230 109 390 319 390" id="an"/><path d="M338-670V0H158v-1490h180v566c73-149 190-208 336-208 226 0 379 139 379 422V0H872v-695c0-172-96-275-252-275-161 0-282 109-282 300" id="ao"/><g id="k"><use transform="matrix(0.009548632812500001,0,0,0.009548632812500001,0,0)" xlink:href="#ac"/><use transform="matrix(0.009548632812500001,0,0,0.009548632812500001,12.623292578125001,0)" xlink:href="#ak"/><use transform="matrix(0.009548632812500001,0,0,0.009548632812500001,17.359414453125,0)" xlink:href="#an"/><use transform="matrix(0.009548632812500001,0,0,0.009548632812500001,29.352497265625004,0)" xlink:href="#ao"/><use transform="matrix(0.009548632812500001,0,0,0.009548632812500001,40.91589160156251,0)" xlink:href="#ah"/></g><path d="M180 0v-1490h190v1322h690V0H180" id="ap"/><path d="M613 24c-304 0-509-231-509-576 0-350 205-580 509-580 305 0 511 230 511 580 0 345-206 576-511 576zm0-161c226 0 329-195 329-415 0-222-103-419-329-419-223 0-326 196-326 419 0 220 103 415 326 415" id="aq"/><g id="l"><use transform="matrix(0.009548632812500001,0,0,0.009548632812500001,0,0)" xlink:href="#ap"/><use transform="matrix(0.009548632812500001,0,0,0.009548632812500001,11.057316796875002,0)" xlink:href="#aq"/><use transform="matrix(0.009548632812500001,0,0,0.009548632812500001,22.783037890625003,0)" xlink:href="#aq"/><use transform="matrix(0.009548632812500001,0,0,0.009548632812500001,34.50875898437501,0)" xlink:href="#ae"/><use transform="matrix(0.009548632812500001,0,0,0.009548632812500001,44.83083105468751,0)" xlink:href="#ai"/></g><path d="M180 0v-1490h901v168H370v510h643v168H370V0H180" id="ar"/><path d="M537 14c-226 0-379-139-379-422v-710h180v695c0 172 97 275 253 275 160 0 281-109 281-300v-670h181V0H879v-209C806-46 684 14 537 14" id="as"/><path d="M338-670V0H158v-1118h173l1 207c72-158 192-221 342-221 226 0 378 139 378 422V0H872v-695c0-172-96-275-252-275-161 0-282 109-282 300" id="at"/><path d="M613 24c-304 0-509-231-509-576 0-350 205-580 509-580 216 0 392 114 453 309l-173 49c-33-115-133-197-280-197-223 0-326 196-326 419 0 220 103 415 326 415 150 0 252-85 285-206l172 49C1010-95 832 24 613 24" id="au"/><g id="m"><use transform="matrix(0.009765625,0,0,0.009765625,0,0)" xlink:href="#ar"/><use transform="matrix(0.009765625,0,0,0.009765625,11.1328125,0)" xlink:href="#as"/><use transform="matrix(0.009765625,0,0,0.009765625,22.958984375,0)" xlink:href="#at"/><use transform="matrix(0.009765625,0,0,0.009765625,34.775390625,0)" xlink:href="#au"/><use transform="matrix(0.009765625,0,0,0.009765625,46.201171875,0)" xlink:href="#ah"/><use transform="matrix(0.009765625,0,0,0.009765625,52.744140625,0)" xlink:href="#ak"/><use transform="matrix(0.009765625,0,0,0.009765625,57.587890625,0)" xlink:href="#aq"/><use transform="matrix(0.009765625,0,0,0.009765625,69.580078125,0)" xlink:href="#at"/><use transform="matrix(0.009765625,0,0,0.009765625,81.396484375,0)" xlink:href="#ae"/></g><path d="M657 26c-323 0-524-166-541-416h195c15 169 171 246 346 246 202 0 356-106 356-265 5-203-294-238-475-293-239-73-380-191-380-389 0-252 224-419 512-419 294 0 499 171 508 396H992c-17-145-151-228-328-228-193 0-321 102-321 242 0 156 175 211 284 241l149 41c160 44 422 134 422 412 0 244-197 432-541 432" id="av"/><path d="M577 24c-279 0-473-224-473-580 0-354 195-576 474-576 218 0 287 134 324 193h14v-551h180V0H922v-173h-20C865-111 790 24 577 24zm27-161c203 0 314-172 314-421 0-247-108-413-314-413-212 0-317 181-317 413 0 235 108 421 317 421" id="aw"/><path d="M338-1490V0H158v-1490h180" id="ax"/><g id="n"><use transform="matrix(0.009765625,0,0,0.009765625,0,0)" xlink:href="#av"/><use transform="matrix(0.009765625,0,0,0.009765625,12.83203125,0)" xlink:href="#ah"/><use transform="matrix(0.009765625,0,0,0.009765625,19.47265625,0)" xlink:href="#ad"/><use transform="matrix(0.009765625,0,0,0.009765625,30.703125,0)" xlink:href="#at"/><use transform="matrix(0.009765625,0,0,0.009765625,42.51953125,0)" xlink:href="#aw"/><use transform="matrix(0.009765625,0,0,0.009765625,54.765625,0)" xlink:href="#ad"/><use transform="matrix(0.009765625,0,0,0.009765625,65.99609375,0)" xlink:href="#ax"/><use transform="matrix(0.009765625,0,0,0.009765625,70.83984375,0)" xlink:href="#aq"/><use transform="matrix(0.009765625,0,0,0.009765625,82.83203125,0)" xlink:href="#at"/><use transform="matrix(0.009765625,0,0,0.009765625,94.6484375,0)" xlink:href="#ai"/></g><path d="M65 0l393-574-370-544h210c88 136 192 297 267 435 67-142 176-302 264-435h206L661-564 1053 0H844c-94-144-206-310-287-458C484-308 366-142 273 0H65" id="ay"/><path d="M677 24c-213 0-288-135-325-197h-20V0H158v-1490h180v551h14c37-59 106-193 324-193 279 0 474 222 474 576 0 356-194 580-473 580zm-27-161c209 0 317-186 317-421 0-232-105-413-317-413-206 0-314 166-314 413 0 249 111 421 314 421" id="az"/><g id="o"><use transform="matrix(0.009765625,0,0,0.009765625,0,0)" xlink:href="#ai"/><use transform="matrix(0.009765625,0,0,0.009765625,11.2109375,0)" xlink:href="#ay"/><use transform="matrix(0.009765625,0,0,0.009765625,21.6796875,0)" xlink:href="#ai"/><use transform="matrix(0.009765625,0,0,0.009765625,33.33984375,0)" xlink:href="#au"/><use transform="matrix(0.009765625,0,0,0.009765625,44.765625,0)" xlink:href="#as"/><use transform="matrix(0.009765625,0,0,0.009765625,56.591796875,0)" xlink:href="#ah"/><use transform="matrix(0.009765625,0,0,0.009765625,63.232421875,0)" xlink:href="#ad"/><use transform="matrix(0.009765625,0,0,0.009765625,74.462890625,0)" xlink:href="#az"/><use transform="matrix(0.009765625,0,0,0.009765625,86.708984375,0)" xlink:href="#ax"/><use transform="matrix(0.009765625,0,0,0.009765625,91.552734375,0)" xlink:href="#ai"/><use transform="matrix(0.009765625,0,0,0.009765625,103.212890625,0)" xlink:href="#ae"/></g><path d="M798-719v166H144v-166h654" id="aA"/><path d="M409 0L70-1118h191c89 329 165 560 243 925 75-353 154-601 240-925h192c85 325 161 564 235 922 77-354 157-598 244-922h191L1267 0h-179c-86-307-176-590-250-913C763-588 675-308 588 0H409" id="aB"/><path d="M678-1118v154H420V0H240v-964H20v-154h220v-149c0-194 155-293 318-293 85 0 141 18 168 30l-50 154c-19-6-47-17-97-17-111 0-159 58-159 166v109h258" id="aC"/><g id="p"><use transform="matrix(0.009765625,0,0,0.009765625,0,0)" xlink:href="#av"/><use transform="matrix(0.009765625,0,0,0.009765625,12.83203125,0)" xlink:href="#as"/><use transform="matrix(0.009765625,0,0,0.009765625,24.658203125,0)" xlink:href="#az"/><use transform="matrix(0.009765625,0,0,0.009765625,36.904296875,0)" xlink:href="#aA"/><use transform="matrix(0.009765625,0,0,0.009765625,46.103515625,0)" xlink:href="#aB"/><use transform="matrix(0.009765625,0,0,0.009765625,62.109375,0)" xlink:href="#aq"/><use transform="matrix(0.009765625,0,0,0.009765625,74.1015625,0)" xlink:href="#aj"/><use transform="matrix(0.009765625,0,0,0.009765625,81.943359375,0)" xlink:href="#af"/><use transform="matrix(0.009765625,0,0,0.009765625,92.919921875,0)" xlink:href="#aC"/><use transform="matrix(0.009765625,0,0,0.009765625,100.322265625,0)" xlink:href="#ax"/><use transform="matrix(0.009765625,0,0,0.009765625,105.166015625,0)" xlink:href="#aq"/><use transform="matrix(0.009765625,0,0,0.009765625,116.796875,0)" xlink:href="#aB"/><use transform="matrix(0.009765625,0,0,0.009765625,133.1640625,0)" xlink:href="#ae"/></g><path d="M52 0l541-1490h220L1361 0h-200l-149-416H398L254 0H52zm404-582h497c-103-290-145-390-251-756-108 377-145 460-246 756" id="aD"/><g id="q"><use transform="matrix(0.009765625,0,0,0.009765625,0,0)" xlink:href="#aD"/><use transform="matrix(0.009765625,0,0,0.009765625,13.798828125,0)" xlink:href="#an"/><use transform="matrix(0.009765625,0,0,0.009765625,26.064453125,0)" xlink:href="#at"/><use transform="matrix(0.009765625,0,0,0.009765625,37.880859375,0)" xlink:href="#aq"/><use transform="matrix(0.009765625,0,0,0.009765625,49.873046875,0)" xlink:href="#ae"/><use transform="matrix(0.009765625,0,0,0.009765625,60.4296875,0)" xlink:href="#ah"/><use transform="matrix(0.009765625,0,0,0.009765625,66.97265625,0)" xlink:href="#ak"/><use transform="matrix(0.009765625,0,0,0.009765625,71.81640625,0)" xlink:href="#au"/></g><path d="M158 418v-1536h174v179h20c37-59 106-193 324-193 279 0 474 222 474 576 0 356-194 580-473 580-213 0-288-135-325-197h-14v591H158zm492-555c209 0 317-186 317-421 0-232-105-413-317-413-206 0-314 166-314 413 0 249 111 421 314 421" id="aE"/><g id="r"><use transform="matrix(0.009765625,0,0,0.009765625,0,0)" xlink:href="#av"/><use transform="matrix(0.009765625,0,0,0.009765625,12.83203125,0)" xlink:href="#aE"/><use transform="matrix(0.009765625,0,0,0.009765625,25.078125,0)" xlink:href="#ai"/><use transform="matrix(0.009765625,0,0,0.009765625,36.73828125,0)" xlink:href="#au"/><use transform="matrix(0.009765625,0,0,0.009765625,48.1640625,0)" xlink:href="#ak"/><use transform="matrix(0.009765625,0,0,0.009765625,53.0078125,0)" xlink:href="#aC"/><use transform="matrix(0.009765625,0,0,0.009765625,60.41015625,0)" xlink:href="#ak"/><use transform="matrix(0.009765625,0,0,0.009765625,65.25390625,0)" xlink:href="#au"/></g><path d="M180 0v-1490h510c348 0 508 194 508 460 0 198-88 351-276 417L1256 0h-220L726-579c-117 2-238 0-356 1V0H180zm190-747h312c235 0 327-108 327-283 0-177-92-293-329-293H370v576" id="aF"/><path d="M158 0v-1118h175l1 205c55-151 181-225 313-225 147 0 245 90 285 228 53-141 190-228 352-228 194 0 352 125 352 384V0h-181v-749c0-161-105-225-225-225-151 0-243 103-243 244V0H807v-767c0-124-93-207-219-207-131 0-250 92-250 270V0H158" id="aG"/><g id="s"><use transform="matrix(0.009765625,0,0,0.009765625,0,0)" xlink:href="#aF"/><use transform="matrix(0.009765625,0,0,0.009765625,12.87109375,0)" xlink:href="#as"/><use transform="matrix(0.009765625,0,0,0.009765625,24.697265625,0)" xlink:href="#at"/><use transform="matrix(0.009765625,0,0,0.009765625,36.513671875,0)" xlink:href="#ah"/><use transform="matrix(0.009765625,0,0,0.009765625,43.056640625,0)" xlink:href="#ak"/><use transform="matrix(0.009765625,0,0,0.009765625,47.900390625,0)" xlink:href="#aG"/><use transform="matrix(0.009765625,0,0,0.009765625,65.419921875,0)" xlink:href="#ai"/></g><g id="t"><use transform="matrix(0.009765625,0,0,0.009765625,0,0)" xlink:href="#ak"/><use transform="matrix(0.009765625,0,0,0.009765625,4.84375,0)" xlink:href="#at"/><use transform="matrix(0.009765625,0,0,0.009765625,16.66015625,0)" xlink:href="#ah"/><use transform="matrix(0.009765625,0,0,0.009765625,23.0078125,0)" xlink:href="#ai"/><use transform="matrix(0.009765625,0,0,0.009765625,34.66796875,0)" xlink:href="#aj"/><use transform="matrix(0.009765625,0,0,0.009765625,42.509765625,0)" xlink:href="#al"/><use transform="matrix(0.009765625,0,0,0.009765625,53.359375,0)" xlink:href="#ai"/><use transform="matrix(0.009765625,0,0,0.009765625,65.01953125,0)" xlink:href="#at"/><use transform="matrix(0.009765625,0,0,0.009765625,76.8359375,0)" xlink:href="#ah"/><use transform="matrix(0.009765625,0,0,0.009765625,83.37890625,0)" xlink:href="#ak"/><use transform="matrix(0.009765625,0,0,0.009765625,88.22265625,0)" xlink:href="#aq"/><use transform="matrix(0.009765625,0,0,0.009765625,100.21484375,0)" xlink:href="#at"/><use transform="matrix(0.009765625,0,0,0.009765625,112.03125,0)" xlink:href="#ae"/></g><path d="M180 0v-1490h528c311 0 458 177 458 395 0 191-114 278-244 313v14c139 9 302 137 302 371 0 225-148 397-499 397H180zm190-168h350c232 0 321-102 321-231 0-149-120-277-311-277H370v508zm0-668h328c160 0 286-101 286-255 0-129-87-231-280-231H370v486" id="aH"/><g id="u"><use transform="matrix(0.009765625,0,0,0.009765625,0,0)" xlink:href="#aH"/><use transform="matrix(0.009765625,0,0,0.009765625,13.0859375,0)" xlink:href="#aj"/><use transform="matrix(0.009765625,0,0,0.009765625,20.615234375,0)" xlink:href="#ad"/><use transform="matrix(0.009765625,0,0,0.009765625,31.845703125,0)" xlink:href="#at"/><use transform="matrix(0.009765625,0,0,0.009765625,43.662109375,0)" xlink:href="#au"/><use transform="matrix(0.009765625,0,0,0.009765625,55.087890625,0)" xlink:href="#ao"/><use transform="matrix(0.009765625,0,0,0.009765625,66.9140625,0)" xlink:href="#ai"/><use transform="matrix(0.009765625,0,0,0.009765625,78.57421875,0)" xlink:href="#ae"/></g></defs></g></svg>